<?xml version="1.0" encoding="UTF-8"?> <svg xmlns="http://www.w3.org/2000/svg" width="1440" height="842" viewBox="0 0 1440 842" fill="none"> <g clip-path="url(#clip0_60_8590)"> <path d="M213.5 516.5L298 579L306.9 540.717L373.177 456.841L407.598 480.279H445.5L463 646.5L1482 317L1642.5 0L-60 135.5L51.5 369.594L152 416L213.5 516.5Z" fill="url(#paint0_linear_60_8590)"></path> <path d="M382.066 524.662C428.603 524.662 466.33 516.621 466.33 506.702C466.33 496.783 428.603 488.742 382.066 488.742C335.528 488.742 297.802 496.783 297.802 506.702C297.802 516.621 335.528 524.662 382.066 524.662Z" fill="#C1C08D"></path> <path fill-rule="evenodd" clip-rule="evenodd" d="M269.564 1011.01H502.151C501.452 1008.77 500.763 1006.54 500.086 1004.32C498.353 998.544 496.704 992.891 495.138 987.357C469.561 897.209 465.846 837.569 472.092 795.739C477.809 757.683 463.011 719.548 432.538 696.198L420.63 687.057C383.248 658.307 334.122 662.954 302.206 690.225C290.294 696.815 278.661 706.463 269.868 714.89C235.392 747.935 155.62 901.6 142.583 959.489C140.079 970.61 144.312 985.715 154.459 994.095C155.654 995.457 157.138 996.536 158.801 997.253C158.931 997.31 159.064 997.368 159.198 997.426C164.453 999.722 172.696 1003.32 174.708 999.176L260.767 864.465C260.305 901.699 261.789 939.928 265.839 979.508C266.667 987.911 267.683 996.279 268.757 1004.82C269.016 1006.88 269.285 1008.95 269.564 1011.01Z" fill="url(#paint1_linear_60_8590)"></path> <path d="M371.266 653.019C371.266 653.019 306.576 625.145 291.587 559.192C276.597 493.239 340.166 448.584 396.032 456.183C451.898 463.783 475.37 517.654 477.161 532.005C484.361 589.655 371.266 653.019 371.266 653.019Z" fill="#22524A"></path> <path d="M352.56 575.613C367.818 631.123 418.812 665.483 452.707 656.147C486.603 646.811 490.534 597.315 475.273 541.805C460.012 486.295 424.771 465.621 390.887 474.959C357.004 484.297 337.298 520.111 352.56 575.613Z" fill="#FFDCC8"></path> <path d="M349.974 581.644L410.088 575.826C410.892 584.056 417.113 662.537 414.031 692.108C411.817 701.214 396.822 705.379 380.547 701.409C365.913 697.839 355.318 688.918 354.917 680.535L354.847 680.52C356.693 662.789 352.747 610.437 349.974 581.644Z" fill="#FFDCC8"></path> <path d="M328.584 564.518C328.584 564.518 318.719 526.957 335.66 500.075C352.6 473.193 403.506 444.6 441.333 480.87C441.333 480.87 461.94 510.473 429.684 537.385C396.638 564.955 385.3 538.2 376.805 568.187C368.31 598.175 343.088 593.276 341.957 599.733L328.584 564.518Z" fill="#22524A"></path> <path d="M431.987 582.024C441.823 572.177 441.823 556.211 431.987 546.363C422.151 536.516 406.204 536.516 396.368 546.363C386.532 556.211 386.532 572.177 396.368 582.024C406.204 591.871 422.151 591.871 431.987 582.024Z" stroke="#163D3C" stroke-width="5" stroke-miterlimit="10"></path> <path d="M490.756 564.28C500.592 554.433 500.592 538.467 490.756 528.62C480.92 518.772 464.973 518.772 455.137 528.62C445.301 538.467 445.301 554.433 455.137 564.28C464.973 574.128 480.92 574.128 490.756 564.28Z" stroke="#163D3C" stroke-width="5" stroke-miterlimit="10"></path> <path d="M356.65 586.271L390.698 572.815" stroke="#163D3C" stroke-width="5" stroke-miterlimit="10"></path> <path d="M330.585 597.369C334.137 610.291 351.493 623.285 360.838 620.711C370.183 618.138 369.642 607.016 366.092 594.096C362.542 581.177 351.643 571.173 342.293 573.749C332.944 576.326 327.032 584.449 330.585 597.369Z" fill="#FFDCC8"></path> <path d="M345.019 719.769C349.137 719.769 352.475 716.427 352.475 712.304C352.475 708.182 349.137 704.839 345.019 704.839C340.901 704.839 337.562 708.182 337.562 712.304C337.562 716.427 340.901 719.769 345.019 719.769Z" fill="#588372"></path> <path d="M363.499 731.036C365.784 731.036 367.637 729.181 367.637 726.893C367.637 724.605 365.784 722.75 363.499 722.75C361.213 722.75 359.361 724.605 359.361 726.893C359.361 729.181 361.213 731.036 363.499 731.036Z" fill="#588372"></path> <rect x="142" y="823" width="484" height="203" fill="#193F3E"></rect> </g> <defs> <linearGradient id="paint0_linear_60_8590" x1="358.5" y1="532.5" x2="371" y2="1.80676e-05" gradientUnits="userSpaceOnUse"> <stop stop-color="#22524A"></stop> <stop offset="0.65785" stop-color="#193F3E"></stop> <stop offset="1" stop-color="#19403F"></stop> </linearGradient> <linearGradient id="paint1_linear_60_8590" x1="322.015" y1="667.531" x2="322.015" y2="858.5" gradientUnits="userSpaceOnUse"> <stop stop-color="#4C8167"></stop> <stop offset="1" stop-color="#88AEBC" stop-opacity="0"></stop> </linearGradient> <clipPath id="clip0_60_8590"> <rect width="1703" height="842" fill="white" transform="translate(-60)"></rect> </clipPath> </defs> </svg> 