<svg width="33" height="40" viewBox="0 0 33 40" fill="none" xmlns="http://www.w3.org/2000/svg">
<path fill-rule="evenodd" clip-rule="evenodd" d="M16.5008 6.77259C17.124 6.77259 17.6297 6.26691 17.6297 5.64369V1.12851C17.6297 0.505671 17.124 0 16.5008 0C15.8776 0 15.3719 0.50568 15.3719 1.12889V5.64408C15.3719 6.26692 15.8776 6.77259 16.5008 6.77259ZM16.4255 11.2879L11.608 20.3179H21.3915L16.574 11.2879H16.4255ZM9.72805 6.77218C9.43893 6.77218 9.15019 6.66145 8.92872 6.44263L6.67397 4.18523C6.23368 3.74491 6.23368 3.02951 6.67397 2.58922C7.11429 2.14892 7.82969 2.14892 8.26998 2.58922L10.5274 4.84662C10.9677 5.28693 10.9677 6.00233 10.5274 6.44263C10.3059 6.66145 10.0172 6.77218 9.72805 6.77218ZM32.9998 20.3178L28.7965 11.9106C28.6045 11.5292 28.2141 11.2877 27.7874 11.2877H19.1341L23.9494 20.3177L32.9998 20.3178ZM24.0718 6.44299C23.8504 6.66181 23.5616 6.77254 23.2725 6.77254C22.9834 6.77254 22.6946 6.66181 22.4758 6.44299C22.0355 6.00267 22.0355 5.28728 22.4758 4.84698L24.7332 2.58958C25.1735 2.14929 25.8889 2.14927 26.3292 2.58958C26.7695 3.0299 26.7695 3.74529 26.3292 4.18559L24.0718 6.44299ZM11.3742 22.5749L16.5009 35.8153L21.6276 22.5749H11.3742ZM17.9515 39.5634L17.71 38.9425L24.0463 22.5749H32.8144L17.9515 39.5634Z" fill="#4D806A"/>
<path fill-rule="evenodd" clip-rule="evenodd" d="M5.21247 11.2879H13.8657L9.0504 20.3179H0L4.20336 11.9107C4.39538 11.5294 4.78578 11.2879 5.21247 11.2879ZM15.0489 39.5635L0.185978 22.575L8.95359 22.5752L15.2904 38.9426L15.0489 39.5635Z" fill="url(#paint0_linear_60_8235)"/>
<defs>
<linearGradient id="paint0_linear_60_8235" x1="7.64521" y1="11.2879" x2="7.64521" y2="39.5635" gradientUnits="userSpaceOnUse">
<stop stop-color="#FFED8C"/>
<stop offset="1" stop-color="#FFED8C" stop-opacity="0"/>
</linearGradient>
</defs>
</svg>
