<svg width="33" height="40" viewBox="0 0 33 40" fill="none" xmlns="http://www.w3.org/2000/svg">
<path fill-rule="evenodd" clip-rule="evenodd" d="M28.7964 11.9106L32.9998 20.3178L23.9494 20.3177L19.1341 11.2878H27.7873C28.214 11.2878 28.6044 11.5293 28.7964 11.9106ZM11.608 20.3179L16.4255 11.288H16.5739L21.3914 20.3179H11.608ZM11.3742 22.5749L16.5008 35.8153L21.6275 22.5749H11.3742ZM17.9514 39.5634L17.7099 38.9424L24.0463 22.5749H32.8144L17.9514 39.5634ZM0.185977 22.5749L15.0489 39.5635L15.2904 38.9425L8.95358 22.5751L0.185977 22.5749ZM5.21247 11.2879H13.8657L9.05039 20.3179H0L4.20335 11.9108C4.39537 11.5294 4.78578 11.2879 5.21247 11.2879Z" fill="url(#paint0_linear_60_8224)"/>
<path d="M16.501 6.77258C17.1242 6.77258 17.6299 6.2669 17.6299 5.64369V1.12851C17.6299 0.50567 17.1242 0 16.501 0C15.8777 0 15.3721 0.505679 15.3721 1.12889V5.64407C15.3721 6.26691 15.8777 6.77258 16.501 6.77258Z" fill="#4D806A"/>
<path d="M8.92872 6.44266C9.15019 6.66148 9.43893 6.77221 9.72805 6.77221C10.0172 6.77221 10.3059 6.66148 10.5274 6.44266C10.9677 6.00236 10.9677 5.28697 10.5274 4.84665L8.26998 2.58925C7.82968 2.14896 7.11429 2.14896 6.67397 2.58925C6.23368 3.02955 6.23368 3.74495 6.67397 4.18526L8.92872 6.44266Z" fill="#4D806A"/>
<path d="M23.2724 6.77249C23.5615 6.77249 23.8503 6.66176 24.0717 6.44294L26.3291 4.18554C26.7694 3.74525 26.7694 3.02985 26.3291 2.58954C25.8888 2.14922 25.1734 2.14924 24.7331 2.58954L22.4757 4.84693C22.0354 5.28723 22.0354 6.00262 22.4757 6.44294C22.6946 6.66176 22.9833 6.77249 23.2724 6.77249H23.2724Z" fill="#4D806A"/>
<defs>
<linearGradient id="paint0_linear_60_8224" x1="16.5" y1="11.2878" x2="16.5" y2="39.5635" gradientUnits="userSpaceOnUse">
<stop stop-color="#FFED8C"/>
<stop offset="1" stop-color="#FFED8C" stop-opacity="0.39"/>
</linearGradient>
</defs>
</svg>
