<svg width="33" height="40" viewBox="0 0 33 40" fill="none" xmlns="http://www.w3.org/2000/svg">
<path fill-rule="evenodd" clip-rule="evenodd" d="M16.5008 6.77258C17.124 6.77258 17.6296 6.2669 17.6296 5.64369V1.12851C17.6296 0.50567 17.124 0 16.5008 0C15.8775 0 15.3719 0.505679 15.3719 1.12889V5.64407C15.3719 6.26691 15.8775 6.77258 16.5008 6.77258ZM16.4255 11.2879L11.608 20.3179H21.3914L16.5739 11.2879H16.4255ZM9.72801 6.77219C9.43888 6.77219 9.15015 6.66146 8.92867 6.44264L6.67393 4.18524C6.23363 3.74492 6.23363 3.02953 6.67393 2.58923C7.11424 2.14894 7.82964 2.14894 8.26994 2.58923L10.5273 4.84663C10.9676 5.28694 10.9676 6.00234 10.5273 6.44264C10.3059 6.66146 10.0171 6.77219 9.72801 6.77219ZM32.9998 20.3177L28.7964 11.9106C28.6044 11.5292 28.214 11.2877 27.7873 11.2877H19.1341L23.9494 20.3177L32.9998 20.3177ZM24.0718 6.443C23.8503 6.66182 23.5616 6.77255 23.2724 6.77255C22.9833 6.77255 22.6946 6.66182 22.4758 6.443C22.0355 6.00268 22.0355 5.28729 22.4758 4.84699L24.7332 2.5896C25.1735 2.1493 25.8889 2.14928 26.3292 2.5896C26.7695 3.02991 26.7695 3.74531 26.3292 4.1856L24.0718 6.443ZM11.3742 22.5749L16.5008 35.8153L21.6275 22.5749H11.3742ZM17.9514 39.5633L17.7099 38.9424L24.0463 22.5748H32.8144L17.9514 39.5633ZM0.185977 22.5749L15.0489 39.5634L15.2904 38.9425L8.95358 22.5751L0.185977 22.5749ZM5.21247 11.2879H13.8657L9.05039 20.3179H0L4.20335 11.9107C4.39537 11.5294 4.78578 11.2879 5.21247 11.2879Z" fill="url(#paint0_linear_60_8213)"/>
<defs>
<linearGradient id="paint0_linear_60_8213" x1="16.5" y1="0" x2="16.5" y2="39.5634" gradientUnits="userSpaceOnUse">
<stop stop-color="#FFED8C"/>
<stop offset="1" stop-color="#FFED8C" stop-opacity="0.39"/>
</linearGradient>
</defs>
</svg>
