<svg width="181" height="180" viewBox="0 0 181 180" fill="none" xmlns="http://www.w3.org/2000/svg">
<path d="M62.6554 104.578C66.8375 104.578 70.2273 107.968 70.2273 112.15C70.1269 114.657 69.0336 116.992 66.8892 118.428C65.986 118.808 65.0839 119.188 64.1817 119.568C64.1775 119.568 64.1743 119.568 64.1701 119.569V135.094H101.57C102.656 131.364 105.195 129.419 108.99 129.037C113.172 129.037 116.561 132.426 116.561 136.609C116.561 140.791 113.172 144.181 108.99 144.181C106.482 144.079 104.147 142.986 102.711 140.842C102.331 139.94 101.951 139.037 101.571 138.134C101.571 138.13 101.571 138.126 101.57 138.124H64.1702V150.189H71.3734C72.9791 150.189 73.8368 152.079 72.7805 153.288L64.0636 163.251C63.5745 163.635 63.7943 163.542 63.471 163.653C63.2027 163.919 63.4214 163.737 62.6513 163.889C62.4084 163.84 62.1664 163.789 61.9246 163.739C61.9214 163.737 61.9182 163.734 61.915 163.73H61.9003L61.2517 163.251C59.439 161.179 57.6242 159.107 55.8105 157.034C54.7171 155.785 53.6249 154.536 52.5316 153.288C51.4752 152.08 52.333 150.189 53.9376 150.189H61.1419V138.124H32.6987V145.327C32.6998 146.932 30.8089 147.79 29.6005 146.732C28.3529 145.64 27.1033 144.548 25.8546 143.454C23.782 141.641 21.7095 139.827 19.637 138.012L19.1595 137.365L19.1585 137.35C19.1553 137.348 19.1521 137.343 19.1479 137.34C19.0982 137.098 19.0486 136.855 19 136.613C19.1521 135.843 18.9694 136.061 19.2345 135.794C19.3454 135.469 19.2525 135.689 19.638 135.201L29.6015 126.485C30.3727 125.989 29.892 126.2 31.1121 126.042C32.1209 126.313 32.553 126.906 32.6987 127.89V135.095H61.1419V119.57C57.4109 118.485 55.4674 115.944 55.0839 112.15C55.0839 107.969 58.4748 104.578 62.6558 104.578L62.6554 104.578Z" fill="url(#paint0_linear_84_8809)"/>
<path d="M83.7431 25.9277C84.5132 26.0798 84.2956 25.8971 84.5628 26.1643C84.8871 26.2753 84.6663 26.1823 85.1554 26.5658L93.8712 36.5293C94.9275 37.7367 94.0708 39.6275 92.4652 39.6275H85.3971C84.6302 52.1939 84.6883 65.8514 78.216 77.0758L86.1768 85.0374C87.1782 80.0081 89.649 75.5198 92.9966 71.6874C99.1709 66.4933 107.383 65.569 115.147 65.102C121.288 64.7323 122.354 64.09 128.502 64.1069C129.611 60.4013 132.518 58.6203 136.215 58.2485C140.717 58.2485 144.367 61.8981 144.367 66.3993C144.367 70.9024 140.717 74.5521 136.215 74.5521L134.572 74.3862C130.615 73.1006 129.665 71.5405 128.292 67.8422C118.124 68.2838 108.582 67.4397 99.1595 72.076C97.2824 73.0003 96.8133 73.4429 95.4117 74.5394C91.8021 78.2788 90.2809 83.1075 89.1865 88.0446L100.598 99.4563H122.331V92.2519C122.407 91.0667 122.952 90.8417 123.918 90.4033C125.139 90.5617 124.658 90.3494 125.43 90.8459L135.393 99.5627C135.777 100.051 135.684 99.83 135.796 100.154C136.062 100.424 135.879 100.205 136.031 100.975C135.981 101.218 135.933 101.459 135.882 101.701C135.879 101.705 135.876 101.708 135.872 101.711V101.725L135.393 102.375C133.321 104.187 131.249 106.002 129.177 107.815C127.928 108.908 126.678 110.001 125.43 111.095C124.222 112.151 122.332 111.293 122.332 109.688V102.484H103.627L138.333 137.191L143.755 131.77C144.492 131.222 144.028 131.465 145.234 131.228C146.259 131.43 146.729 131.993 146.94 132.966C147.05 134.622 147.16 136.277 147.271 137.933C147.454 140.681 147.636 143.429 147.819 146.177L147.7 146.973L147.689 146.984V146.998C147.554 147.205 147.418 147.411 147.281 147.618C146.629 148.054 146.912 148.03 146.535 148.031C146.227 148.181 146.448 148.091 145.832 148.165L132.623 147.284C131.021 147.177 130.291 145.234 131.426 144.098L136.192 139.332L99.3439 102.484H87.667C87.5223 106.924 87.5772 105.023 87.4938 108.185H94.1308C95.7364 108.185 96.5931 110.075 95.5368 111.283C94.4445 112.533 93.3523 113.781 92.259 115.029C90.4452 117.102 88.6315 119.174 86.8178 121.247L86.1692 121.725H86.1544C86.1512 121.728 86.147 121.733 86.1449 121.736C85.9019 121.785 85.66 121.835 85.4181 121.885C84.647 121.732 84.8656 121.914 84.5973 121.649C84.2741 121.538 84.4938 121.631 84.0058 121.247L75.29 111.283C74.2326 110.075 75.0904 108.185 76.6949 108.185H83.763C83.8919 104.857 83.8158 106.758 83.9996 102.484H54.9534C53.8685 106.214 51.3281 108.158 47.5335 108.542C43.3525 108.542 39.9616 105.151 39.9616 100.97C40.0641 98.4612 41.1563 96.1267 43.3008 94.691C44.204 94.3107 45.1061 93.9304 46.0083 93.5512C46.0115 93.5512 46.0157 93.5502 46.0199 93.5502V87.4435C41.0149 87.6156 44.7322 87.5079 34.8638 87.5385C33.7568 91.2441 30.8486 93.0252 27.1513 93.3981C22.6501 93.3981 19.0005 89.7484 19.0005 85.2453C19.0005 80.7433 22.6501 77.0934 27.1513 77.0934L28.794 77.2592C32.7521 78.5459 33.7008 80.1049 35.074 83.8032C41.3908 83.6596 37.7423 83.7145 46.02 83.7008V39.6243H38.8167C37.211 39.6243 36.3533 37.7335 37.4096 36.5261C38.503 35.2775 39.5963 34.0289 40.6896 32.7794C42.5023 30.7068 44.3171 28.6354 46.1297 26.5629L46.7794 26.0843H46.7931C46.7963 26.0801 46.7994 26.077 46.8037 26.0738C47.0456 26.0241 47.2864 25.9745 47.5294 25.9248C48.2995 26.077 48.0819 25.8942 48.3502 26.1615C48.6734 26.2724 48.4537 26.1794 48.9417 26.5629L57.6586 36.5264C58.7149 37.7338 57.8572 39.6246 56.2526 39.6246H49.0482V83.6416C55.9716 83.6373 62.9096 83.013 69.2962 80.2158C71.1733 79.2926 71.6424 78.8489 73.0429 77.7524L73.7845 76.9253L70.4558 73.5967C69.3034 75.0185 67.383 75.2456 65.6958 75.4157C61.5137 75.4157 58.124 72.027 58.124 67.8438C58.124 63.6617 61.5137 60.2719 65.6958 60.2719C69.878 60.2719 73.2677 63.6617 73.2677 67.8438C73.0469 70.0283 73.3121 68.8991 72.3434 71.2009L75.4914 74.3478C75.8601 73.715 76.3101 73.1235 76.5963 72.4506C80.9515 62.2305 81.3436 50.5717 81.6668 39.6238H75.0298C73.4241 39.6238 72.5674 37.733 73.6248 36.5256C74.7171 35.277 75.8104 34.0284 76.9026 32.7788C78.7153 30.7063 80.5301 28.6349 82.3439 26.5623L82.9924 26.0838H83.0062C83.0093 26.0796 83.0136 26.0764 83.0167 26.0733C83.2586 26.0236 83.5005 25.974 83.7435 25.9243L83.7431 25.9277ZM88.6002 91.7435C87.9611 97.2694 88.1924 94.6971 87.8534 99.4568H96.3136L88.6002 91.7435ZM76.4322 79.5766C76.0086 80.109 76.3128 79.7456 75.4561 80.6066C69.2829 85.8028 61.0709 86.7271 53.3068 87.1938L49.0476 87.3406V93.552C52.6707 94.752 53.5583 96.0492 54.8311 99.457H84.1721C84.6126 93.3292 84.282 96.9862 85.3605 88.5027L76.4322 79.5766Z" fill="url(#paint1_linear_84_8809)"/>
<path d="M151.939 28.3689C156.12 28.3689 159.511 31.7587 159.511 35.9408C159.409 38.4485 158.316 40.783 156.171 42.2197C155.269 42.599 154.366 42.9782 153.465 43.3585C153.461 43.3595 153.457 43.3595 153.452 43.3606V105.301H160.656C162.261 105.301 163.119 107.191 162.063 108.399L153.346 118.363C152.858 118.746 153.077 118.653 152.754 118.764C152.486 119.031 152.704 118.848 151.933 119.001C151.692 118.951 151.449 118.901 151.207 118.852C151.204 118.849 151.2 118.845 151.197 118.841H151.182L150.534 118.363C148.721 116.29 146.906 114.219 145.094 112.146C144 110.897 142.908 109.648 141.815 108.4C140.757 107.192 141.615 105.302 143.221 105.302H150.424V43.3609C146.694 42.275 144.75 39.7356 144.367 35.941C144.367 31.7589 147.757 28.3691 151.939 28.3691L151.939 28.3689Z" fill="url(#paint2_linear_84_8809)"/>
<path d="M99.6007 63.2839C103.223 65.3744 107.854 64.1343 109.944 60.5121C111.111 58.2895 111.331 55.7226 110.193 53.4062C109.601 52.6255 109.01 51.8449 108.418 51.0664C108.415 51.0632 108.411 51.0611 108.407 51.059L121.223 28.8609L127.463 32.463C128.852 33.2658 130.541 32.0574 130.229 30.4834L127.662 17.4968C127.431 16.9201 127.575 17.1102 127.351 16.8525C127.251 16.488 127.349 16.7553 126.758 16.2377C126.524 16.1595 126.288 16.0813 126.055 16.0032C126.049 16.0042 126.045 16.0063 126.04 16.0074L126.028 16L125.228 16.0898C122.62 16.9782 120.013 17.8655 117.406 18.7539C115.836 19.2895 114.265 19.824 112.693 20.3585C111.175 20.8761 110.972 22.9434 112.362 23.7461L118.6 27.3471L105.784 49.544C102.012 48.6186 99.0573 49.8461 96.8296 52.9403C94.7391 56.5626 95.9792 61.1936 99.6003 63.284L99.6007 63.2839Z" fill="url(#paint3_linear_84_8809)"/>
<defs>
<linearGradient id="paint0_linear_84_8809" x1="67.7807" y1="104.578" x2="67.7807" y2="163.889" gradientUnits="userSpaceOnUse">
<stop stop-color="#FFED8C"/>
<stop offset="1" stop-color="#FFED8C" stop-opacity="0"/>
</linearGradient>
<linearGradient id="paint1_linear_84_8809" x1="83.4098" y1="25.9243" x2="83.4098" y2="148.165" gradientUnits="userSpaceOnUse">
<stop stop-color="#193F3E"/>
<stop offset="1" stop-color="#5F806C"/>
</linearGradient>
<linearGradient id="paint2_linear_84_8809" x1="151.938" y1="28.3689" x2="151.938" y2="119.001" gradientUnits="userSpaceOnUse">
<stop stop-color="#193F3E"/>
<stop offset="1" stop-color="#5F806C"/>
</linearGradient>
<linearGradient id="paint3_linear_84_8809" x1="113.04" y1="16" x2="113.04" y2="64.2995" gradientUnits="userSpaceOnUse">
<stop stop-color="#FFED8C"/>
<stop offset="1" stop-color="#FFED8C" stop-opacity="0"/>
</linearGradient>
</defs>
</svg>
