<svg width="180" height="180" viewBox="0 0 180 180" fill="none" xmlns="http://www.w3.org/2000/svg">
<path fill-rule="evenodd" clip-rule="evenodd" d="M124 37.3294C124 42.1174 113.286 46 99.5653 46C85.8453 46 75 42.1174 75 37.3294C75 23.8704 86.1064 13 99.5653 13C113.024 13 124 24 124 37.3294ZM116.552 33.7061C116.552 31.5062 114.853 29.8235 112.632 29.8235C110.411 29.8235 108.712 31.6353 108.712 33.7061C108.712 35.9061 110.411 37.5887 112.632 37.5887C114.853 37.5887 116.552 35.906 116.552 33.7061ZM103.486 33.7061C103.486 31.5062 101.787 29.8235 99.5653 29.8235C97.344 29.8235 95.6451 31.6353 95.6451 33.7061C95.6451 35.9061 97.344 37.5887 99.5653 37.5887C101.787 37.5887 103.486 35.906 103.486 33.7061ZM90.4189 33.7061C90.4189 31.5062 88.7199 29.8235 86.4987 29.8235C84.4077 29.8235 82.5784 31.6353 82.5784 33.7061C82.5784 35.9061 84.2774 37.5887 86.4987 37.5887C88.72 37.5887 90.4189 35.906 90.4189 33.7061ZM127.864 31L127.864 31.0003L127.864 31.0002L127.864 31ZM127.864 31.0003C138.409 34.4324 144.999 39.5806 145 45.3894C145 52.7818 133.929 59.2509 117.98 62.1552C113.366 67.5679 106.645 71 99 71C91.3551 71 84.501 67.5679 80.0199 62.1552C64.0713 59.2509 53 52.9145 53 45.3894C53 39.5806 59.7227 34.4323 70.1348 31.0002C69.7395 32.9802 69.4756 35.0925 69.4756 37.3366C69.4756 40.5042 71.1886 44.9933 79.4925 48.0294C84.7645 49.8774 91.6185 50.9336 98.9993 50.9336C113.762 50.9336 128.524 46.7097 128.524 37.3364C128.524 35.225 128.391 33.1126 127.864 31.0003ZM99.2104 78.1401C95.1814 78.1401 91.1528 77.7156 87.337 76.6552L62.3163 170.162C62.3163 174.615 78.8549 178.431 99.2104 178.431C119.566 178.431 136.105 174.827 136.105 170.162L111.084 76.6552C107.268 77.7156 103.239 78.1401 99.2104 78.1401ZM99.2104 111.853C103.664 111.853 107.055 115.457 107.055 119.698C107.055 124.151 103.451 127.543 99.2104 127.543C94.97 127.543 91.3656 123.938 91.3656 119.698C91.3656 115.458 94.757 111.853 99.2104 111.853ZM110.024 146.415C109.385 146.521 108.747 146.628 108.108 146.734C107.475 146.84 106.841 146.946 106.208 147.051L105.36 162.953C105.36 164.225 104.3 165.074 103.028 165.074H95.8192C94.5473 165.074 93.4868 164.227 93.4868 162.953L92.6393 147.051C92.0182 146.948 91.3971 146.844 90.776 146.74L90.7133 146.73L90.7034 146.728C90.0768 146.624 89.4501 146.519 88.8235 146.415C87.976 146.203 87.3385 145.354 87.5515 144.507L88.399 137.721C88.8235 133.481 92.428 130.299 96.6683 130.299H102.605C106.846 130.299 110.45 133.479 110.875 137.721L111.722 144.507C111.509 145.354 110.873 146.202 110.024 146.415H110.024Z" fill="url(#paint0_linear_84_8811)"/>
<path d="M98.7003 111C103.154 111 106.545 114.604 106.545 118.845C106.545 123.298 102.941 126.69 98.7003 126.69C94.4598 126.69 90.8555 123.085 90.8555 118.845C90.8555 114.605 94.2469 111 98.7003 111ZM109.514 145.562C108.242 145.773 106.97 145.986 105.698 146.198L104.85 162.1C104.85 163.372 103.79 164.221 102.518 164.221H95.3091C94.0371 164.221 92.9767 163.374 92.9767 162.1L92.1292 146.198C90.8572 145.986 89.5852 145.773 88.3133 145.562C87.4658 145.35 86.8284 144.501 87.0414 143.654L87.8888 136.868C88.3133 132.628 91.9178 129.446 96.1581 129.446H102.095C106.335 129.446 109.94 132.626 110.364 136.868L111.212 143.654C110.999 144.501 110.363 145.349 109.514 145.562Z" fill="url(#paint1_linear_84_8811)"/>
<path d="M154 64L157.968 73.5391L168.266 74.3647L160.42 81.0859L162.817 91.1353L154 85.75L145.183 91.1353L147.58 81.0859L139.734 74.3647L150.032 73.5391L154 64Z" fill="url(#paint2_linear_84_8811)"/>
<path d="M53.5 2L55.4838 6.76957L60.6329 7.18237L56.7098 10.5429L57.9084 15.5676L53.5 12.875L49.0916 15.5676L50.2902 10.5429L46.3671 7.18237L51.5162 6.76957L53.5 2Z" fill="url(#paint3_linear_84_8811)"/>
<path d="M39.5 64L46.7738 81.4884L65.6541 83.002L51.2693 95.3241L55.6641 113.748L39.5 103.875L23.3359 113.748L27.7307 95.3241L13.3459 83.002L32.2262 81.4884L39.5 64Z" fill="url(#paint4_linear_84_8811)"/>
<defs>
<linearGradient id="paint0_linear_84_8811" x1="109.57" y1="169.125" x2="80.958" y2="-63.91" gradientUnits="userSpaceOnUse">
<stop stop-color="#193F3E"/>
<stop offset="1" stop-color="#5F806C"/>
</linearGradient>
<linearGradient id="paint1_linear_84_8811" x1="99.1059" y1="111" x2="99.1059" y2="164.221" gradientUnits="userSpaceOnUse">
<stop stop-color="#FFED8C"/>
<stop offset="1" stop-color="#FFED8C" stop-opacity="0"/>
</linearGradient>
<linearGradient id="paint2_linear_84_8811" x1="154" y1="64" x2="154" y2="94" gradientUnits="userSpaceOnUse">
<stop stop-color="#193F3E"/>
<stop offset="1" stop-color="#5F806C"/>
</linearGradient>
<linearGradient id="paint3_linear_84_8811" x1="53.5" y1="2" x2="53.5" y2="17" gradientUnits="userSpaceOnUse">
<stop stop-color="#FFED8C"/>
<stop offset="1" stop-color="#FFED8C" stop-opacity="0"/>
</linearGradient>
<linearGradient id="paint4_linear_84_8811" x1="39.5" y1="64" x2="39.5" y2="119" gradientUnits="userSpaceOnUse">
<stop stop-color="#193F3E"/>
<stop offset="1" stop-color="#5F806C"/>
</linearGradient>
</defs>
</svg>
