<svg width="181" height="180" viewBox="0 0 181 180" fill="none" xmlns="http://www.w3.org/2000/svg">
<path fill-rule="evenodd" clip-rule="evenodd" d="M92.6687 8.18555C77.5622 16.6993 65.7859 29.5342 58.5293 44.6424H126.808C119.55 29.5346 107.776 16.7009 92.6687 8.18555ZM46.648 101.225C48.6187 110.213 52.0094 118.849 56.6906 126.78L29.5377 134.021L46.648 101.225ZM138.689 101.226L155.801 134.021L128.647 126.781C133.328 118.85 136.72 110.213 138.689 101.226ZM162.58 27.9599C162.58 33.8906 157.754 38.7154 151.824 38.7154C145.893 38.7154 141.069 33.8906 141.069 27.9599C141.069 22.0292 145.893 17.2045 151.824 17.2045C157.754 17.2045 162.58 22.0292 162.58 27.9599ZM24.5502 74.5689C29.4927 74.5689 33.5133 70.5483 33.5133 65.6058C33.5133 60.6634 29.4927 56.6427 24.5502 56.6427C19.6078 56.6427 15.5871 60.6634 15.5871 65.6058C15.5871 70.5483 19.6078 74.5689 24.5502 74.5689ZM137.505 158.1C137.881 151.468 143.383 146.273 150.032 146.273L150.032 146.273C156.951 146.273 162.58 151.902 162.579 158.823C162.579 165.742 156.95 171.371 150.031 171.371H20.9631C16.0207 171.371 12 167.35 12 162.408C12 157.465 16.0207 153.444 20.9631 153.444C23.7247 153.444 26.2909 154.693 28.0054 156.867C28.8633 157.957 30.5688 157.694 31.0771 156.423C33.5431 150.257 39.423 146.274 46.0595 146.274C52.6959 146.274 58.577 150.257 61.0418 156.423C61.28 157.017 61.8165 157.441 62.4503 157.531C63.0841 157.625 63.7192 157.37 64.1148 156.867C65.8292 154.692 68.3952 153.444 71.1571 153.444C72.1737 153.444 73.1789 153.619 74.143 153.961C74.6924 154.155 75.3019 154.071 75.7769 153.735C76.2519 153.398 76.5349 152.853 76.5349 152.27V138.595H108.802V148.065C108.802 149.055 109.605 149.858 110.595 149.858C115.255 149.858 119.18 153.496 119.528 158.14C119.579 158.822 120.015 159.415 120.65 159.67C121.284 159.925 122.01 159.796 122.517 159.337C124.166 157.848 126.298 157.029 128.521 157.029C130.738 157.029 132.868 157.847 134.516 159.331C135.028 159.793 135.76 159.92 136.398 159.657C137.035 159.395 137.466 158.789 137.505 158.1ZM72.9517 135.011V122.97C72.9517 121.98 73.7546 121.177 74.7444 121.177C75.7342 121.177 76.537 121.98 76.537 122.97V135.011H108.804V122.97C108.804 121.98 109.607 121.177 110.597 121.177C111.586 121.177 112.389 121.98 112.389 122.97V135.011H116.475C135.486 111.578 140.582 79.0242 128.44 50.3359H56.9025C44.7359 79.0766 49.8947 111.623 68.8656 135.011H72.9517ZM164.373 62.0209C166.353 62.0209 167.959 60.4164 167.959 58.4355C167.959 56.4558 166.353 54.8502 164.373 54.8502C162.393 54.8502 160.788 56.456 160.788 58.4355C160.788 60.4165 162.393 62.0209 164.373 62.0209ZM157.204 90.7031C157.204 92.6839 155.598 94.2885 153.618 94.2885C151.639 94.2885 150.033 92.6841 150.033 90.7031C150.033 88.7235 151.639 87.1177 153.618 87.1177C155.598 87.1177 157.204 88.7234 157.204 90.7031ZM35.3055 26.1678C37.2852 26.1678 38.8909 24.5632 38.8909 22.5824C38.8909 20.6027 37.2852 18.997 35.3055 18.997C33.3258 18.997 31.7201 20.6028 31.7201 22.5824C31.7201 24.5634 33.3258 26.1678 35.3055 26.1678ZM35.3053 90.7031C35.3053 92.6839 33.6996 94.2885 31.7199 94.2885C29.7402 94.2885 28.1345 92.6841 28.1345 90.7031C28.1345 88.7235 29.7402 87.1177 31.7199 87.1177C33.6996 87.1177 35.3053 88.7234 35.3053 90.7031ZM20.965 119.384C22.9448 119.384 24.5504 117.78 24.5504 115.799C24.5504 113.819 22.9448 112.214 20.965 112.214C18.9853 112.214 17.3797 113.819 17.3797 115.799C17.3797 117.78 18.9853 119.384 20.965 119.384Z" fill="url(#paint0_linear_84_8810)"/>
<circle cx="93.9585" cy="77.3711" r="19" fill="url(#paint1_linear_84_8810)"/>
<circle cx="93.9586" cy="77.371" r="11" transform="rotate(120 93.9586 77.371)" fill="url(#paint2_linear_84_8810)"/>
<defs>
<linearGradient id="paint0_linear_84_8810" x1="89.5484" y1="180.468" x2="89.5484" y2="-23.3111" gradientUnits="userSpaceOnUse">
<stop stop-color="#193F3E"/>
<stop offset="1" stop-color="#5F806C"/>
</linearGradient>
<linearGradient id="paint1_linear_84_8810" x1="74.9585" y1="51.3447" x2="105.24" y2="100.626" gradientUnits="userSpaceOnUse">
<stop stop-color="#FFED8C"/>
<stop offset="1" stop-color="#FFED8C" stop-opacity="0"/>
</linearGradient>
<linearGradient id="paint2_linear_84_8810" x1="82.9586" y1="62.3031" x2="100.49" y2="90.8343" gradientUnits="userSpaceOnUse">
<stop stop-color="#FFED8C"/>
<stop offset="1" stop-color="#FFED8C" stop-opacity="0"/>
</linearGradient>
</defs>
</svg>
