<svg width="217" height="167" viewBox="0 0 217 167" fill="none" xmlns="http://www.w3.org/2000/svg">
<path opacity="0.7" d="M178.776 118.463L180.674 121.651C182.826 125.217 185.948 128.095 189.674 129.949L193 131.584L189.816 133.505C186.257 135.652 183.382 138.771 181.531 142.497L179.899 145.829L177.98 142.661C175.829 139.079 172.69 136.198 168.94 134.363L165.634 132.708L168.797 130.807C172.375 128.667 175.259 125.537 177.103 121.794L178.776 118.463Z" fill="url(#paint0_linear_60_8594)"/>
<path d="M140.524 133.419C137.988 142.845 132.485 150.391 125.012 154.704L125.011 154.703C108.575 164.194 87.4823 158.537 77.9893 142.104L59.3084 109.747C58.4976 108.341 58.2812 106.704 58.7021 105.134C59.123 103.563 60.1271 102.253 61.5286 101.444C64.435 99.7671 68.1632 100.766 69.8388 103.666L80.2 121.614C80.4054 121.972 80.7377 122.225 81.1325 122.331C81.5274 122.437 81.9358 122.382 82.2917 122.178C82.9948 121.773 83.2557 120.805 82.8439 120.094L67.1075 92.8364C65.492 90.0232 66.5342 86.1509 69.3403 84.5381C70.7472 83.7258 72.3845 83.5065 73.9509 83.9262C75.5218 84.3471 76.8312 85.3513 77.6447 86.754L93.3725 114.008C93.7974 114.74 94.7329 114.995 95.4583 114.576C96.156 114.169 96.4198 113.184 96.0166 112.476L76.6985 79.0281C75.0826 76.2105 76.12 72.3505 78.9226 70.7275C80.3309 69.9155 81.9699 69.7014 83.5421 70.1227C85.1155 70.5396 86.4278 71.5446 87.2358 72.9504L106.549 106.401C106.754 106.759 107.086 107.012 107.481 107.118C107.872 107.222 108.283 107.169 108.635 106.963C109.343 106.555 109.601 105.583 109.189 104.875L94.3689 79.1694C92.7467 76.3639 93.7804 72.489 96.5943 70.8644C99.4914 69.1895 103.219 70.1884 104.898 73.0941L125.608 108.958L121.588 115.648C121.165 116.352 121.406 117.323 122.114 117.749C122.46 117.955 122.871 118.019 123.271 117.917C123.664 117.819 123.995 117.571 124.205 117.224L135.933 97.6834C138.221 94.3086 141.127 92.9465 144.169 93.7663C147.403 94.628 149.328 97.9934 148.457 101.268L140.524 133.419Z" fill="url(#paint1_linear_60_8594)"/>
<path d="M13.1553 112.133C15.6921 121.56 21.195 129.105 28.6681 133.419L28.6684 133.418C45.1043 142.909 66.1973 137.252 75.6903 120.818L94.3712 88.4621C95.1821 87.0555 95.3985 85.419 94.9776 83.8482C94.5567 82.2775 93.5525 80.968 92.1511 80.1589C89.2447 78.4819 85.5165 79.4808 83.8408 82.381L73.4797 100.329C73.2743 100.687 72.942 100.94 72.5472 101.046C72.1523 101.151 71.7439 101.097 71.388 100.893C70.6849 100.488 70.424 99.52 70.8358 98.8089L86.5722 71.5511C88.1877 68.7379 87.1455 64.8656 84.3394 63.2528C82.9325 62.4405 81.2952 62.2212 79.7287 62.6409C78.1579 63.0619 76.8485 64.066 76.035 65.4687L60.3072 92.723C59.8823 93.4547 58.9468 93.71 58.2214 93.2912C57.5237 92.8835 57.2599 91.8992 57.6631 91.1904L76.9812 57.7428C78.5971 54.9252 77.5597 51.0652 74.7571 49.4423C73.3488 48.6303 71.7098 48.4161 70.1376 48.8374C68.5642 49.2543 67.2518 50.2593 66.4439 51.6651L47.131 85.1159C46.9257 85.4737 46.5934 85.7265 46.1985 85.8323C45.808 85.9369 45.3967 85.8834 45.0451 85.6779C44.3365 85.2701 44.0792 84.298 44.4903 83.5901L59.3108 57.8842C60.933 55.0787 59.8993 51.2038 57.0854 49.5792C54.1883 47.9043 50.4604 48.9032 48.7816 51.8088L28.0718 87.6726L32.0918 94.3632C32.5151 95.0668 32.2734 96.0382 31.5658 96.4641C31.2193 96.6697 30.8086 96.7334 30.4091 96.6319C30.0152 96.5336 29.6846 96.2855 29.4743 95.9387L17.7467 76.3981C15.4585 73.0233 12.5527 71.6612 9.5103 72.481C6.27672 73.3427 4.35194 76.7081 5.22309 79.9823L13.1553 112.133Z" fill="url(#paint2_linear_60_8594)"/>
<path fill-rule="evenodd" clip-rule="evenodd" d="M77.8584 33.5718C76.7312 32.5369 75.9473 31.1278 75.6932 29.5181L74.1823 16.0776C74.0184 12.483 76.5749 9.32225 79.9818 9.00571C83.5772 8.86229 86.754 11.4355 87.09 14.8426L88.6011 28.2833C88.765 31.8779 86.2085 35.0386 82.8016 35.3552C81.0037 35.4267 79.1744 34.7801 77.8584 33.5718ZM100.051 30.3977C98.7165 33.0248 99.6204 35.9552 101.765 37.9244C102.35 38.4613 102.74 38.8197 103.499 39.1671C106.732 40.7353 110.909 39.3167 112.202 35.9508L117.61 23.4074C119.099 20.2214 117.569 16.015 114.161 14.6378C110.929 13.0696 106.751 14.4882 105.458 17.8541L100.051 30.3977ZM119.671 52.0567C119.892 52.2597 120.053 52.5277 120.186 52.7499C120.28 52.9073 120.361 53.0418 120.439 53.1139C122.703 55.1922 125.996 55.3939 128.669 53.618L139.88 45.5734C142.906 43.4142 143.492 39.3676 141.378 36.3686C139.263 33.3696 135.229 32.8391 132.204 34.9981L120.993 43.0427C118.33 45.1852 117.745 49.2302 119.671 52.0565L119.671 52.0567Z" fill="url(#paint3_linear_60_8594)"/>
<defs>
<linearGradient id="paint0_linear_60_8594" x1="178.296" y1="104.92" x2="179.32" y2="145.828" gradientUnits="userSpaceOnUse">
<stop stop-color="#528A6B"/>
<stop offset="1" stop-color="#2C5255" stop-opacity="0.74"/>
</linearGradient>
<linearGradient id="paint1_linear_60_8594" x1="92.3024" y1="166.641" x2="131.194" y2="77.4493" gradientUnits="userSpaceOnUse">
<stop stop-color="#193F3E"/>
<stop offset="1" stop-color="#5F806C"/>
</linearGradient>
<linearGradient id="paint2_linear_60_8594" x1="26.9138" y1="144.394" x2="20.1206" y2="57.295" gradientUnits="userSpaceOnUse">
<stop stop-color="#22817C"/>
<stop offset="1" stop-color="#3AD2B7"/>
</linearGradient>
<linearGradient id="paint3_linear_60_8594" x1="108.896" y1="59.2999" x2="108.896" y2="0.184705" gradientUnits="userSpaceOnUse">
<stop stop-color="#193F3E"/>
<stop offset="1" stop-color="#5F806C"/>
</linearGradient>
</defs>
</svg>
