<svg width="217" height="167" viewBox="0 0 217 167" fill="none" xmlns="http://www.w3.org/2000/svg">
<path opacity="0.7" d="M202.317 108.518L204.277 111.809C206.498 115.49 209.72 118.461 213.566 120.374L217 122.062L213.714 124.045C210.039 126.261 207.072 129.481 205.161 133.327L203.476 136.766L201.496 133.496C199.275 129.799 196.035 126.825 192.164 124.931L188.751 123.222L192.017 121.26C195.71 119.051 198.687 115.82 200.59 111.956L202.317 108.518Z" fill="url(#paint0_linear_60_8592)"/>
<path opacity="0.7" d="M6.78302 137.408L7.76254 139.054C8.87316 140.894 10.4843 142.38 12.4074 143.336L14.1243 144.18L12.4812 145.172C10.6438 146.28 9.16033 147.89 8.20493 149.813L7.3623 151.532L6.37223 149.897C5.26196 148.049 3.64152 146.562 1.70628 145.615L0 144.76L1.63254 143.779C3.47907 142.675 4.96766 141.059 5.91933 139.128L6.78302 137.408Z" fill="url(#paint1_linear_60_8592)"/>
<path d="M124.572 21C111.674 21 101.276 31.3973 101.276 44.2965C101.276 48.6399 102.46 52.5887 104.566 56.1417L100.223 65.487C99.3008 67.5931 101.407 69.6992 103.513 68.7774L112.858 64.434C116.28 66.4079 120.361 67.7245 124.703 67.7245C137.602 67.7245 148 57.3272 148 44.4279C147.869 31.3976 137.47 21 124.572 21ZM113.78 37.7157C113.78 35.6096 115.491 33.8992 117.596 33.8992C119.702 33.8992 121.413 35.6105 121.413 37.7157C121.413 39.8218 119.701 41.5321 117.596 41.5321C115.359 41.5321 113.78 39.8208 113.78 37.7157ZM132.732 48.9027C132.732 53.1149 129.31 56.5365 125.098 56.5365H124.045C119.833 56.5365 116.411 53.1147 116.411 48.9027L116.412 47.9818C116.412 47.1923 117.071 46.534 117.86 46.534H131.284C132.074 46.534 132.732 47.1923 132.732 47.9818L132.732 48.9027ZM131.811 41.5323C129.705 41.5323 127.995 39.821 127.995 37.7159C127.995 35.6098 129.706 33.8995 131.811 33.8995C133.917 33.8995 135.628 35.6108 135.628 37.7159C135.496 39.8211 133.785 41.5323 131.811 41.5323Z" fill="url(#paint2_linear_60_8592)"/>
<path fill-rule="evenodd" clip-rule="evenodd" d="M175.269 82.1952C175.269 87.868 170.526 92.4674 164.676 92.4674C158.826 92.4674 154.083 87.868 154.083 82.1952C154.083 76.5216 158.826 71.923 164.676 71.923C170.526 71.923 175.269 76.5216 175.269 82.1952ZM193.521 77.8657C191.016 77.268 188.412 78.7623 187.811 81.2532L186.008 88.3277C185.006 92.3128 181.601 95.2027 177.494 95.5015C173.588 95.8003 169.28 95.9998 164.673 95.9998C160.065 95.9998 155.758 95.8003 151.852 95.5015C147.745 95.2026 144.34 92.3128 143.338 88.3277L141.535 81.2532C140.934 78.7623 138.329 77.1679 135.825 77.8657C133.321 78.4634 131.718 81.0544 132.42 83.5453L134.223 90.6198C136.226 98.4907 143.037 104.17 151.15 104.867C151.511 104.919 151.898 104.943 152.297 104.969C152.675 104.993 153.064 105.018 153.454 105.067L153.254 126.389L148.546 161.062C148.145 163.951 150.149 166.543 153.053 166.941H153.754C156.359 166.941 158.562 165.047 158.963 162.457L163.47 128.681H165.875L170.382 162.457C170.783 165.048 172.987 166.941 175.591 166.941H176.293C179.197 166.542 181.201 163.951 180.8 161.062L176.092 126.389L175.892 105.067C176.615 105.067 177.257 104.986 177.965 104.896L178.195 104.867C186.308 104.27 193.12 98.4907 195.123 90.6198L196.926 83.5453C197.627 81.0544 196.124 78.4635 193.52 77.8657H193.521ZM55.8627 82.5166C55.8627 88.3665 51.264 93.1094 45.5905 93.1094C39.9177 93.1094 35.3183 88.3665 35.3183 82.5166C35.3183 76.666 39.9177 71.9231 45.5905 71.9231C51.264 71.9231 55.8627 76.666 55.8627 82.5166ZM64.6454 105.186C66.8342 101.252 70.1179 97.9724 73.839 95.6775C73.0519 95.6909 72.1981 95.7059 71.2864 95.7219C64.7183 95.8372 55.1425 96.0054 45.8197 96.0054C44.6158 96.0054 43.4118 96.0054 42.2079 96.1144C32.5769 96.661 24.3681 103.219 21.8502 112.4L18.7856 123.549C18.129 126.062 19.5521 128.577 22.0693 129.341C22.5075 129.45 22.945 129.45 23.3824 129.45C25.4622 129.45 27.3226 128.029 27.8701 125.953L30.9347 114.804C31.5913 112.508 32.9044 110.432 34.5465 108.792L34.4374 125.843L24.6963 160.274C23.9298 163.006 25.572 165.848 28.3082 166.722C28.7456 166.831 29.293 166.941 29.7312 166.941C32.0301 166.941 34.1089 165.411 34.7663 163.115L44.5074 128.686H46.6962L46.8054 161.694C46.8054 164.536 49.1042 166.831 52.0588 166.831C54.9043 166.831 57.203 164.535 57.203 161.585L56.9838 105.187C58.8235 105.26 60.5642 105.235 62.2392 105.21H62.2393H62.2396H62.2397H62.2399H62.24C63.056 105.198 63.8564 105.186 64.6452 105.186L64.6454 105.186ZM113.46 80.6249C114.119 78.093 116.65 76.5517 119.179 77.2121L119.178 77.2108C121.598 77.8722 123.138 80.4043 122.479 83.0468L120.719 90.2027C118.74 98.1299 111.921 103.855 103.781 104.516C103.396 104.516 103.011 104.543 102.626 104.57L102.626 104.57C102.241 104.598 101.856 104.625 101.471 104.625L101.691 161.656C101.691 164.628 99.2717 166.94 96.4122 166.94C93.4431 166.94 91.133 164.518 91.133 161.656L91.0232 128.406H88.8237L79.0348 163.087C78.3741 165.4 76.2851 166.941 73.9749 166.941C73.5346 166.941 72.9845 166.83 72.5449 166.72C69.7953 165.95 68.145 162.977 68.9153 160.225L78.7042 125.654L78.8139 108.479C77.1637 110.131 75.8441 112.222 75.1843 114.535L72.1046 125.765C71.5545 127.857 69.6849 129.289 67.5949 129.289C67.2673 129.289 66.8308 129.179 66.3942 129.07L66.385 129.068C63.8555 128.298 62.4254 125.765 63.0852 123.233L66.1649 112.003C68.6948 102.755 76.8343 96.1487 86.5126 95.4867C87.8323 95.3769 89.0421 95.3769 90.252 95.3769C94.9813 95.3769 99.2706 95.267 103.121 94.9368C107.3 94.6067 110.71 91.7444 111.7 87.7809L113.46 80.6249ZM100.804 82.5166C100.804 88.3665 96.0604 93.1094 90.2104 93.1094C84.3595 93.1094 79.6172 88.3665 79.6172 82.5166C79.6172 76.666 84.3595 71.9231 90.2104 71.9231C96.0604 71.9231 100.804 76.666 100.804 82.5166Z" fill="url(#paint3_linear_60_8592)"/>
<defs>
<linearGradient id="paint0_linear_60_8592" x1="201.822" y1="94.5384" x2="202.879" y2="136.766" gradientUnits="userSpaceOnUse">
<stop stop-color="#528A6B"/>
<stop offset="1" stop-color="#2C5255" stop-opacity="0.74"/>
</linearGradient>
<linearGradient id="paint1_linear_60_8592" x1="6.53512" y1="130.419" x2="7.0637" y2="151.532" gradientUnits="userSpaceOnUse">
<stop stop-color="#528A6B"/>
<stop offset="1" stop-color="#2C5255" stop-opacity="0.74"/>
</linearGradient>
<linearGradient id="paint2_linear_60_8592" x1="148.047" y1="23.7459" x2="99.8433" y2="32.8083" gradientUnits="userSpaceOnUse">
<stop stop-color="#22817C"/>
<stop offset="1" stop-color="#3AD2B7"/>
</linearGradient>
<linearGradient id="paint3_linear_60_8592" x1="107.858" y1="180.102" x2="107.858" y2="46.2425" gradientUnits="userSpaceOnUse">
<stop stop-color="#193F3E"/>
<stop offset="1" stop-color="#5F806C"/>
</linearGradient>
</defs>
</svg>
