<?xml version="1.0" encoding="UTF-8"?> <svg xmlns="http://www.w3.org/2000/svg" width="305" height="383" viewBox="0 0 305 383" fill="none"> <path d="M217.352 149.974L241.793 170.975L281.008 114.617L256.491 95.427L217.352 149.974Z" fill="#F5BCA7"></path> <path d="M241.013 76.3082C237.411 90.4051 239.187 118.661 239.812 119.357L271.332 126.972C275.387 124.513 282.328 117.192 285.033 111.009C287.793 104.652 288.968 97.7191 288.456 90.8067L287.525 77.9343L275.676 69.8483L262.473 64.6704L242.971 62.5479L241.013 76.3082Z" fill="#F5BCA7"></path> <path d="M258.369 38.5291L252.983 66.1618C252.391 69.1997 249.583 71.2998 246.713 70.8509C243.843 70.4019 241.997 67.576 242.588 64.5407L247.973 36.9055C248.566 33.8701 251.374 31.77 254.244 32.219C257.114 32.6679 258.96 35.4913 258.369 38.5291Z" fill="#F5BCA7"></path> <path d="M294.122 58.9186L271.546 76.7044C270.508 77.5197 269.189 77.8896 267.879 77.733C266.569 77.5764 265.375 76.906 264.558 75.8688V75.8688C263.747 74.8308 263.38 73.5137 263.536 72.2052C263.691 70.8968 264.358 69.7032 265.39 68.8852L287.966 51.0994C289.004 50.2841 290.322 49.9142 291.632 50.0708C292.942 50.2274 294.137 50.8978 294.954 51.935V51.935C295.764 52.973 296.132 54.2901 295.976 55.5986C295.82 56.907 295.154 58.1006 294.122 58.9186V58.9186Z" fill="#F5BCA7"></path> <path d="M299.462 71.4742L278.758 86.6536C278.275 87.0075 277.728 87.2628 277.147 87.405C276.566 87.5471 275.963 87.5733 275.372 87.4821C274.781 87.3908 274.213 87.1839 273.702 86.8731C273.191 86.5624 272.746 86.1538 272.392 85.6709V85.6709C272.04 85.187 271.786 84.6383 271.645 84.0561C271.504 83.474 271.479 82.8697 271.572 82.2779C271.664 81.6861 271.872 81.1183 272.184 80.6071C272.496 80.0958 272.905 79.6511 273.389 79.2984L294.094 64.1165C295.069 63.4026 296.286 63.1054 297.48 63.2901C298.673 63.4749 299.745 64.1264 300.459 65.1016C300.812 65.5855 301.066 66.1342 301.206 66.7164C301.347 67.2986 301.372 67.9028 301.28 68.4946C301.187 69.0865 300.979 69.6542 300.667 70.1654C300.355 70.6767 299.946 71.1214 299.462 71.4742V71.4742Z" fill="#F5BCA7"></path> <path d="M302.828 68.1872L304.129 76.3331C304.572 79.1215 303.047 81.683 300.718 82.0546C298.581 82.3963 296.483 80.7652 295.82 78.261L293.728 70.2398C292.958 67.2868 294.495 64.3437 297.016 63.9396L297.806 63.8124C300.143 63.4408 302.385 65.3987 302.828 68.1872Z" fill="#F5BCA7"></path> <path d="M264.231 19.0471L258.203 38.7883C257.301 41.7364 254.329 43.4947 251.564 42.7191C248.796 41.9409 247.284 38.923 248.183 35.9848L254.214 16.2436C255.114 13.2956 258.086 11.5372 260.851 12.3129C263.619 13.0835 265.131 16.1015 264.231 19.0471Z" fill="#F5BCA7"></path> <path d="M291.865 54.1641L282.896 48.6021C280.198 46.7041 279.481 43.115 281.324 40.7955C283.091 38.5507 286.526 38.3437 289 40.2966L299.321 48.4799C300.918 49.747 301.232 51.9718 300.006 53.3336C298.058 55.5334 294.628 55.8801 291.865 54.1641Z" fill="#F5BCA7"></path> <path d="M292.722 81.8796L297.42 76.0183C298.992 74.2724 301.575 74.0704 303.06 75.5718C304.483 77.011 304.338 79.4577 302.741 81.039L296.08 87.6385C295.048 88.6611 293.456 88.6936 292.592 87.7109C291.219 86.1421 291.274 83.6878 292.722 81.8796Z" fill="#F5BCA7"></path> <path d="M274.757 50.4656L259.648 75.4071C258.934 76.5849 257.781 77.4304 256.444 77.7578C255.107 78.0852 253.695 77.8677 252.518 77.153C251.935 76.799 251.428 76.3336 251.025 75.7832C250.622 75.2329 250.331 74.6085 250.169 73.9456C250.007 73.2827 249.977 72.5944 250.081 71.9199C250.185 71.2454 250.42 70.5981 250.774 70.0148L265.886 45.0733C266.6 43.8956 267.752 43.0501 269.089 42.7227C270.425 42.3953 271.837 42.6128 273.014 43.3273V43.3273C273.596 43.6813 274.104 44.1468 274.507 44.6971C274.91 45.2474 275.2 45.8719 275.362 46.5348C275.524 47.1977 275.554 47.886 275.45 48.5605C275.347 49.2349 275.111 49.8823 274.757 50.4656V50.4656Z" fill="#F5BCA7"></path> <path d="M286.339 48.799L271.392 52.7672C270.745 52.9393 270.071 52.9822 269.409 52.8935C268.746 52.8047 268.107 52.586 267.528 52.2499C266.95 51.9138 266.443 51.4669 266.038 50.9347C265.632 50.4025 265.335 49.7954 265.164 49.1482V49.1482C264.992 48.501 264.949 47.8262 265.038 47.1624C265.127 46.4986 265.345 45.8589 265.681 45.2798C266.017 44.7007 266.464 44.1936 266.996 43.7874C267.528 43.3813 268.134 43.0841 268.781 42.9128L283.728 38.9446C284.375 38.7726 285.049 38.7298 285.712 38.8187C286.375 38.9076 287.014 39.1265 287.592 39.4628C288.171 39.7992 288.677 40.2464 289.083 40.7789C289.488 41.3114 289.785 41.9187 289.956 42.5661V42.5661C290.128 43.2132 290.171 43.8878 290.082 44.5514C289.993 45.215 289.775 45.8546 289.439 46.4335C289.103 47.0124 288.656 47.5193 288.124 47.9252C287.592 48.3311 286.986 48.628 286.339 48.799Z" fill="#F5BCA7"></path> <path d="M296.543 70.2612L287.575 56.2516C286.931 55.2434 286.713 54.0208 286.969 52.8519C287.224 51.683 287.932 50.6632 288.937 50.0162V50.0162C289.944 49.3719 291.166 49.1536 292.333 49.4094C293.501 49.6651 294.519 50.374 295.165 51.3805L304.134 65.3902C304.778 66.3979 304.997 67.6205 304.742 68.7895C304.487 69.9586 303.779 70.9786 302.774 71.6255V71.6255C301.766 72.2707 300.545 72.4893 299.377 72.2335C298.209 71.9778 297.189 71.2684 296.543 70.2612V70.2612Z" fill="#F5BCA7"></path> <path d="M267.57 8.17271L264.284 18.5833C263.076 21.7783 259.74 23.4643 257.002 22.2647C254.386 21.1149 253.337 17.7752 254.663 14.7822L260.191 2.31145C261.048 0.383476 263.145 -0.529383 264.787 0.316134C267.413 1.66048 268.584 4.96274 267.57 8.17271Z" fill="#F5BCA7"></path> <path d="M240.891 118.564C246.855 116.466 251.512 113.501 254.593 103.477C257.059 95.4679 257.069 89.2599 255.014 84.3714C252.892 79.3307 248.609 75.2902 243.594 76.1557C242.314 76.3752 241.123 76.3253 240.508 75.6568L240.478 75.6269C237.257 72.0952 239.98 70.2944 233.059 61.298C226.138 52.3016 220.603 56.6464 219.447 58.0282C218.291 59.4099 222.546 62.6897 224.26 64.5953C225.974 66.5008 227.194 74.098 228.779 77.525C229.706 79.5203 230.441 84.8054 230.891 88.8409C231.312 92.6203 232.007 96.364 232.972 100.042C234.374 105.395 234.441 110.47 236.783 114.568C237.533 115.868 239.97 117.516 240.891 118.564Z" fill="#F5BCA7"></path> <path d="M252.351 168.351C209.474 228.37 92.8965 348.089 53.5873 373.37C20.9795 394.341 8.74502 374.213 7.97522 373.547C-1.00569 365.746 -3.60664 333.82 6.5053 323.929L220.303 137.7L252.351 168.351Z" fill="url(#paint0_linear_116_830)"></path> <defs> <linearGradient id="paint0_linear_116_830" x1="126.175" y1="137.7" x2="126.175" y2="382.888" gradientUnits="userSpaceOnUse"> <stop stop-color="#476F61"></stop> <stop offset="1" stop-color="#476F61" stop-opacity="0"></stop> </linearGradient> </defs> </svg> 