<svg width="217" height="167" viewBox="0 0 217 167" fill="none" xmlns="http://www.w3.org/2000/svg">
<g clip-path="url(#clip0_60_8593)">
<path d="M156.266 82.8543L118.914 68.334V44H101.744V61.9303L57.5255 44.8566C54.5229 43.5758 51.0856 44.4323 48.5096 46.5615L9.86978 80.7173C6.43238 83.7029 6.0058 89.2582 9.00843 92.6681C11.1498 94.3811 13.299 95.2295 15.875 95.2295H20.1655V155H45.9254H71.6853H148.965V99.5041H153.255C156.693 99.5041 160.122 97.3668 161.41 93.957C163.133 89.6826 160.983 84.5594 156.266 82.8543ZM131.794 103.77V116.578H114.624V103.77H131.794ZM88.8557 103.77H106.026V116.578H88.8557V103.77ZM88.8557 137.926V125.119H106.026V137.926H88.8557ZM131.794 137.926H114.624V125.119H131.794V137.926Z" fill="url(#paint0_linear_60_8593)"/>
<path opacity="0.7" d="M154.887 25L157.037 28.4951C159.475 32.4043 163.011 35.5596 167.232 37.5915L171 39.3839L167.394 41.4899C163.361 43.8435 160.105 47.2634 158.008 51.348L156.159 55L153.986 51.5273C151.549 47.6012 147.992 44.4422 143.745 42.4309L140 40.6161L143.583 38.5325C147.636 36.1861 150.903 32.7551 152.992 28.652L154.887 25Z" fill="url(#paint1_linear_60_8593)"/>
<path fill-rule="evenodd" clip-rule="evenodd" d="M-1.41651e-06 98.1166L-7.87055e-07 90.9164L7.92263 89.2961C7.92263 89.1155 7.96735 88.9805 8.01208 88.8455C8.05681 88.7105 8.10153 88.5754 8.10153 88.3948L2.16043 83.1727L5.76225 76.8704L13.3237 79.392L13.8638 78.8519L11.3421 71.2905L17.6445 67.6887L22.8666 73.6298C23.0472 73.6298 23.1822 73.585 23.3172 73.5403C23.4523 73.4956 23.5873 73.4509 23.7679 73.4509L25.2026 65.7106L32.4028 65.7106L34.0231 73.6332C34.2037 73.6332 34.3387 73.6779 34.4737 73.7227C34.6088 73.7674 34.7438 73.8121 34.9244 73.8121L40.1465 67.871L46.4488 71.4728L43.9272 79.0342L44.4673 79.5743L52.0287 77.0527L55.6306 83.355L49.6895 88.5772C49.6895 88.7578 49.7342 88.8928 49.7789 89.0278C49.8236 89.1628 49.8684 89.2979 49.8684 89.4785L57.6086 90.9132L57.6086 98.1134L49.686 99.7337C49.686 99.9143 49.6413 100.049 49.5966 100.184C49.5518 100.319 49.5071 100.454 49.5071 100.635L55.4482 105.857L51.8464 112.159L44.285 109.638L43.7449 110.178L46.2665 117.739L39.9642 121.341L34.7421 115.4C34.5615 115.4 34.4264 115.445 34.2914 115.489C34.1564 115.534 34.0214 115.579 33.8407 115.579L32.4061 123.319L25.2059 123.319L23.5856 115.397C23.405 115.397 23.2699 115.352 23.1349 115.307C22.9999 115.262 22.8649 115.218 22.6842 115.218L17.4621 121.159L11.1598 117.557L13.6814 109.996L13.1413 109.455L5.57991 111.977L1.97809 105.675L7.9192 100.453C7.9192 100.272 7.87447 100.137 7.82974 100.002C7.78502 99.867 7.74029 99.7319 7.74029 99.5513L-1.41651e-06 98.1166ZM18.0022 94.5148C18.0022 100.456 22.8631 105.317 28.8042 105.317C34.7453 105.317 39.6062 100.456 39.6062 94.5148C39.6062 88.5737 34.7453 83.7128 28.8042 83.7128C22.8631 83.7128 18.0022 88.5737 18.0022 94.5148ZM35.6722 153.29L21.6944 153.29L21.6944 167.268L35.6722 167.268L35.6722 153.29ZM0.729244 153.29L14.7071 153.29L14.7071 167.268L0.729242 167.268L0.729244 153.29ZM56.6374 153.29L42.6595 153.29L42.6595 167.268L56.6374 167.268L56.6374 153.29ZM26.9356 128.83L30.4309 128.83L30.4309 137.566L51.396 137.566L51.396 149.795L47.904 149.795L47.904 141.058L30.4309 141.058L30.4309 149.795L26.9356 149.795L26.9356 141.058L9.46571 141.058L9.4657 149.795L5.97367 149.795L5.97384 137.566L26.9356 137.566L26.9356 128.83Z" fill="url(#paint2_linear_60_8593)"/>
</g>
<defs>
<linearGradient id="paint0_linear_60_8593" x1="84.0942" y1="165.128" x2="84.0942" y2="14.8321" gradientUnits="userSpaceOnUse">
<stop stop-color="#193F3E"/>
<stop offset="1" stop-color="#5F806C"/>
</linearGradient>
<linearGradient id="paint1_linear_60_8593" x1="154.343" y1="10.1539" x2="155.43" y2="55.0017" gradientUnits="userSpaceOnUse">
<stop stop-color="#528A6B"/>
<stop offset="1" stop-color="#2C5255" stop-opacity="0.74"/>
</linearGradient>
<linearGradient id="paint2_linear_60_8593" x1="3.29559" y1="167.367" x2="34.8282" y2="72.2249" gradientUnits="userSpaceOnUse">
<stop stop-color="#22817C"/>
<stop offset="1" stop-color="#3AD2B7"/>
</linearGradient>
<clipPath id="clip0_60_8593">
<rect width="217" height="167" fill="white"/>
</clipPath>
</defs>
</svg>
