<?xml version="1.0" encoding="UTF-8"?> <svg xmlns="http://www.w3.org/2000/svg" width="2000" height="492" viewBox="0 0 2000 492" fill="none"> <g clip-path="url(#clip0_94_989)"> <path fill-rule="evenodd" clip-rule="evenodd" d="M2312.23 47.4307L2287.33 186.96L2242.18 207.112H2242.15L2151.19 247.671L2113.13 264.64L2104.55 265.72L2103.61 265.834L2069.73 270.097L2012.41 277.288L1668.52 320.52L1553.09 335.016H1552.96L1523.94 338.682L1529.3 333.31L1529.37 333.225L1557.68 304.916L1568.85 293.745L1685.79 176.699L1686.94 175.562L1687.89 174.596L1690.28 174.112L2312.23 47.4307Z" fill="url(#paint0_linear_94_989)"></path> <g style="mix-blend-mode:multiply" opacity="0.5"> <path fill-rule="evenodd" clip-rule="evenodd" d="M1663.93 315.177L1709.95 246.563L1722.5 244.346L1747.91 197.533L2109.41 137.93L2254.37 177.154L2230.11 236.757L1663.93 315.177Z" fill="#4C7C6A"></path> </g> <path fill-rule="evenodd" clip-rule="evenodd" d="M2362 15L2321.54 380.038L2174.84 376.57L2147.07 375.888L2114.98 375.121H2114.61L2078.44 374.268L2054.31 373.7L2042.37 373.415H2042.34L1915.91 370.403L1911.79 370.289L1855.98 368.981L1787.49 367.361H1787.46L1766.5 366.85L1724.53 365.855H1724.5L1489.39 360.256L1422.99 358.692L1404.06 358.237L1403.01 358.209L1361.54 357.214L1359.05 357.157L1361.54 356.504L1385.57 350.194L1385.94 350.08L1467.39 328.677L1467.62 328.592L1557.68 304.916L1633.39 284.991L1695.04 268.79L1763.16 250.855L1754.32 250.144L1712.82 246.79L1709.95 246.563L1710.09 246.535L1722.94 243.522L1835.44 217.287L1869.55 209.3L1891.01 204.298L2211.45 188.466V174.908L1932.85 197.732L2047.53 177.239L2068.32 156.035L1747.91 197.533L1799.4 167.689L2090.72 100.411L2138.03 89.1275L1685.79 176.699L1683.2 177.154L1686.94 175.562L1690.28 174.113L1786.04 133.013L2207.7 16.5064L2362 15Z" fill="url(#paint1_linear_94_989)"></path> <path fill-rule="evenodd" clip-rule="evenodd" d="M1097.92 417.3L1009.56 425.429L941.838 431.654L911.471 434.496C911.471 434.496 852.12 436.656 757.78 440.01L727.75 441.09L678.927 442.824L521.997 448.508L515.249 448.736L373.233 453.767L364.19 454.079L318.235 455.699C164.038 461.1 2.51926 466.671 -135.853 471.304C-217.54 474.146 -291.062 476.448 -350.446 478.267C-443.032 481.11 -500.662 482.559 -499.312 481.735C-497.963 480.911 -500.56 476.676 -505.757 471.218L-505.993 470.963L-506.701 470.224C-522.459 454.108 -556.436 427.106 -556.436 427.106L-555.761 426.822L-443.504 378.815L-427.781 372.107L-397.414 371.738L-386.752 371.595L-340.796 370.999L-297.743 370.487L-271.661 370.146L-198.105 369.123L-103.192 367.929L-61.1839 367.389L135.594 364.916L137.45 371.425L138.935 376.541L446.889 376.399L460.386 399.82H464.266L779.948 408.347H781.163L934.077 412.525L1016.24 414.77L1097.92 417.3Z" fill="url(#paint2_linear_94_989)"></path> <path fill-rule="evenodd" clip-rule="evenodd" d="M2183.24 467.524L2166.81 467.666H2164.71L2148.25 467.837L2013.76 469.088L2007.11 469.144L1990.21 469.315L1779.09 471.276L1668.96 472.328L1638.96 472.612L1626 472.726L1546.65 473.465L1525.76 473.664L1497.86 473.92L1458.95 474.289L1327.09 475.511L1008.41 478.496L956.277 478.979L818.715 480.286H818.242L772.759 480.713L667.926 481.679H667.892L659.524 481.764L549.292 482.788L535.492 482.93L-381.523 491.513L-592 493.475L-563.928 484.834L-563.354 484.663L-519.659 471.191L-506.028 470.821L-504.915 470.793L-496.986 470.594L-134.336 460.76L-133.425 460.731L-134.505 469.94L321.067 453.569L366.112 451.948L374.682 451.636L507.588 446.861L514.303 446.605H514.337L678.993 440.693L717.323 439.3L733.215 431.484L775.155 410.905L776.167 410.394L779.002 409.03V409.001L779.879 408.575L781.802 407.665L808.154 394.704L1359.18 338.057L1367.07 321.06L1568.85 293.745L1633.39 284.991L1689.23 277.431L1799.2 262.537L1954.98 262.054L1988.65 261.94L2049.59 261.741L2101.92 261.57L2103.61 265.834L2147.07 375.888L2183.24 467.524Z" fill="url(#paint3_linear_94_989)"></path> <path fill-rule="evenodd" clip-rule="evenodd" d="M2248.73 493.048L2180.98 492.963L2178.41 492.935H2178.38H2166.6L1781.65 492.366L1729.39 492.309L1647.97 492.167H1625.16L1547.86 492.053L1531.87 492.025L1502.55 491.968H1502.51L1461.18 491.911L1323.85 491.712L1007.26 491.258L963.161 491.201L791.486 490.945H784.367L784.03 490.661L772.76 480.713L727.75 441.034L723.802 437.538L734.7 432.024L777.214 410.422L779.913 409.03H779.947L780.757 408.603L808.155 394.704L933.975 412.81L974.768 418.693L1016.13 415.055H1016.17L1316.57 388.792L1446.74 377.423L1423.79 367.105L1404.06 358.237L1385.94 350.08L1359.18 338.057L1367.08 321.06L1467.62 328.592L1529.37 333.225L1553.09 335.016L1563.04 335.755L1679.01 344.452L1764.58 350.876L2069.73 270.097L2101.92 261.57L2104.55 265.72L2174.84 376.57L2248.73 493.048Z" fill="url(#paint4_linear_94_989)"></path> <path opacity="0.5" fill-rule="evenodd" clip-rule="evenodd" d="M1461.18 491.911L1323.86 491.712L1007.26 491.257L963.163 491.2L791.488 490.945L791.792 490.689L815.883 481.196L818.245 480.286L844.631 469.883L941.839 431.654L974.77 418.693L1016.14 415.055H1016.17L1316.57 388.792L1446.74 377.423L1458.95 474.289L1461.18 491.911Z" fill="#193F3E"></path> <g style="mix-blend-mode:multiply" opacity="0.5"> <path fill-rule="evenodd" clip-rule="evenodd" d="M2248.73 493.048L2180.98 492.963L2178.41 492.935H2178.38H2166.6L1781.65 492.366L1781.05 487.42L1779.09 471.276L1775.82 444.018L1773.35 423.611L1773.25 422.758L1773.22 422.388L1769.51 391.777L1769.4 390.896L1767.04 371.454L1766.5 366.85L1764.58 350.876L2069.73 270.097L2101.92 261.57L2104.55 265.72L2174.84 376.57L2248.73 493.048Z" fill="#4C7C6A"></path> </g> <path fill-rule="evenodd" clip-rule="evenodd" d="M1511.96 337.831L1767.01 371.455L1996.04 325.495L2017.64 328.025L1683.06 412.782L1421.4 341.838L1511.96 337.831Z" fill="url(#paint5_linear_94_989)"></path> <path fill-rule="evenodd" clip-rule="evenodd" d="M1683.06 412.781L1685.56 454.933L1969.73 350.648L2012.91 352.752L2017.64 328.023L1683.06 412.781Z" fill="url(#paint6_linear_94_989)"></path> <path fill-rule="evenodd" clip-rule="evenodd" d="M1650.33 477.246L1647.06 498.023L2181.12 497.995L2104.76 356.874L1650.33 477.246Z" fill="url(#paint7_linear_94_989)"></path> <g style="mix-blend-mode:multiply" opacity="0.5"> <path fill-rule="evenodd" clip-rule="evenodd" d="M1687.62 361.25L1515.47 338.285L1511.96 337.801L1421.4 341.837L1422.99 358.692L1423.8 367.106L1423.83 367.788L1403.01 358.209L1385.57 350.194L1359.18 338.057L1367.08 321.06L1467.39 328.678L1516.75 332.401L1529.3 333.311L1552.96 335.016L1563.05 335.755L1678.88 344.168L1679.01 344.452L1687.45 360.966L1687.62 361.25Z" fill="#4C7C6A"></path> </g> <path fill-rule="evenodd" clip-rule="evenodd" d="M1628.8 476.278C1632.62 475.397 1972.12 346.849 1972.12 346.849L2104.89 356.872L1650.47 477.244L1628.8 476.278Z" fill="url(#paint8_linear_94_989)"></path> <path opacity="0.5" fill-rule="evenodd" clip-rule="evenodd" d="M2176.25 507.089L2127.77 505.867L1818.8 498.022L1700.71 495.009L1729.39 492.309L1781.05 487.42L1862.9 479.689L1867.63 490.49L1996.11 491.314L1990.21 469.457L1971.92 401.242L2007.11 469.457L2008.02 471.219L2013.79 469.485L1975.66 394.107L2054.35 374.211L2074.22 369.152L2078.47 374.836C2090.18 390.412 2123.75 435.122 2148.32 468.405C2155.44 478.069 2161.81 486.738 2166.64 493.503C2167.95 495.35 2169.2 497.027 2170.28 498.562C2172.71 502.001 2174.47 504.588 2175.45 506.123C2175.75 506.426 2176.02 506.749 2176.25 507.089V507.089Z" fill="#193F3E"></path> <path fill-rule="evenodd" clip-rule="evenodd" d="M-314.732 107.194L-293.084 228.497L-253.836 246.016H-253.807L-174.723 281.278L-141.635 296.03L-134.184 296.969L-133.363 297.068L-103.912 300.774L-54.0745 307.026L244.893 344.61L345.243 357.212H345.361L370.587 360.4L365.923 355.73L365.865 355.656L341.254 331.044L331.544 321.333L229.874 219.576L228.877 218.588L228.056 217.748L225.973 217.328L-314.732 107.194Z" fill="url(#paint9_linear_94_989)"></path> <g style="mix-blend-mode:multiply" opacity="0.5"> <path fill-rule="evenodd" clip-rule="evenodd" d="M248.883 339.965L208.872 280.315L197.96 278.387L175.871 237.689L-138.408 185.872L-264.425 219.972L-243.334 271.789L248.883 339.965Z" fill="#4C7C6A"></path> </g> <path fill-rule="evenodd" clip-rule="evenodd" d="M-358 78.9999L-322.829 396.354L-195.287 393.339L-171.145 392.746L-143.249 392.079H-142.926L-111.481 391.337L-90.5073 390.843L-80.1232 390.596H-80.0939L29.8189 387.977L33.3976 387.878L81.9153 386.741L141.462 385.333H141.492L159.708 384.888L196.199 384.023H196.228L400.624 379.155L458.353 377.796L474.809 377.401L475.718 377.376L511.769 376.511L513.94 376.462L511.769 375.894L490.884 370.408L490.561 370.309L419.75 351.702L419.545 351.628L341.253 331.044L275.429 313.723L221.836 299.638L162.612 284.046L170.297 283.428L206.378 280.512L208.871 280.314L208.754 280.29L197.577 277.67L99.7794 254.863L70.1232 247.919L51.4671 243.57L-227.114 229.807V218.02L15.0935 237.862L-84.6113 220.046L-102.681 201.612L175.871 237.689L131.108 211.743L-122.158 153.254L-163.284 143.444L229.874 219.576L232.132 219.972L228.876 218.588L225.972 217.328L142.724 181.597L-223.858 80.3095L-358 78.9999Z" fill="url(#paint10_linear_94_989)"></path> <path fill-rule="evenodd" clip-rule="evenodd" d="M-202.589 472.412L-188.304 472.535H-186.485L-172.17 472.684L-55.2469 473.771L-49.4682 473.82L-34.7721 473.969L148.768 475.674L244.513 476.588L270.59 476.835L281.854 476.934L350.847 477.576L369.004 477.749L393.263 477.972L427.085 478.293L541.72 479.355L818.776 481.95L864.096 482.37L983.689 483.507H984.1L1023.64 483.877L1114.78 484.718H1114.81L1122.08 484.792L1217.92 485.681L1229.91 485.805L2027.14 493.267L2210.12 494.972L2185.72 487.46L2185.22 487.312L2147.23 475.599L2135.38 475.278L2134.41 475.253L2127.52 475.08L1812.24 466.531L1811.45 466.506L1812.39 474.512L1416.33 460.279L1377.17 458.871L1369.72 458.599L1254.17 454.447L1248.34 454.225H1248.31L1105.16 449.085L1071.84 447.875L1058.02 441.079L1021.56 423.189L1020.68 422.744L1018.21 421.558V421.533L1017.45 421.163L1015.78 420.372L992.87 409.104L513.824 359.857L506.96 345.08L331.545 321.333L275.43 313.723L226.883 307.15L131.285 294.201L-4.14786 293.781L-33.4227 293.683L-86.3992 293.51L-131.895 293.361L-133.362 297.068L-171.144 392.746L-202.589 472.412Z" fill="url(#paint11_linear_94_989)"></path> <path fill-rule="evenodd" clip-rule="evenodd" d="M-259.527 494.602L-200.626 494.527L-198.396 494.503H-198.367H-188.129L146.537 494.009L191.975 493.959L262.756 493.836H282.586L349.789 493.737L363.693 493.712L389.184 493.663H389.213L425.147 493.613L544.535 493.44L819.771 493.045L858.11 492.995L1007.36 492.773H1013.55L1013.84 492.526L1023.64 483.877L1062.77 449.382L1066.2 446.342L1056.73 441.549L1019.77 422.769L1017.42 421.558H1017.39L1016.69 421.187L992.869 409.104L883.484 424.845L848.019 429.96L812.057 426.797H812.027L550.871 403.964L437.702 394.08L457.649 385.11L474.809 377.401L490.561 370.309L513.822 359.857L506.958 345.08L419.544 351.628L365.864 355.656L345.242 357.213L336.589 357.855L235.77 365.416L161.38 371.001L-103.913 300.774L-131.897 293.361L-134.185 296.969L-195.287 393.339L-259.527 494.602Z" fill="url(#paint12_linear_94_989)"></path> <path opacity="0.5" fill-rule="evenodd" clip-rule="evenodd" d="M425.13 493.613L544.517 493.44L819.754 493.045L858.093 492.995L1007.34 492.773L1007.08 492.551L986.134 484.297L984.081 483.507L961.142 474.463L876.632 441.227L848.002 429.959L812.039 426.797H812.01L550.853 403.964L437.685 394.08L427.066 478.293L425.13 493.613Z" fill="#193F3E"></path> <g style="mix-blend-mode:multiply" opacity="0.5"> <path fill-rule="evenodd" clip-rule="evenodd" d="M-259.527 494.602L-200.626 494.527L-198.396 494.503H-198.367H-188.129L146.537 494.009L147.065 489.709L148.766 475.674L151.612 451.976L153.753 434.234L153.841 433.493L153.87 433.172L157.097 406.559L157.185 405.793L159.238 388.891L159.708 384.888L161.38 371.001L-103.913 300.774L-131.897 293.361L-134.185 296.969L-195.287 393.339L-259.527 494.602Z" fill="#4C7C6A"></path> </g> <path fill-rule="evenodd" clip-rule="evenodd" d="M232.25 424.819L230.08 461.465L-16.9674 370.803L-54.5144 372.631L-58.6211 351.133L232.25 424.819Z" fill="url(#paint13_linear_94_989)"></path> <path fill-rule="evenodd" clip-rule="evenodd" d="M260.703 480.863L263.548 498.926L-200.743 498.902L-134.361 376.215L260.703 480.863Z" fill="url(#paint14_linear_94_989)"></path> <path fill-rule="evenodd" clip-rule="evenodd" d="M279.42 480.022C276.105 479.256 -19.0506 367.5 -19.0506 367.5L-134.477 376.214L260.588 480.862L279.42 480.022Z" fill="url(#paint15_linear_94_989)"></path> <path opacity="0.5" fill-rule="evenodd" clip-rule="evenodd" d="M-196.519 506.808L-154.366 505.746L114.241 498.926L216.909 496.306L191.975 493.959L147.065 489.709L75.9021 482.988L71.7955 492.378L-39.9067 493.094L-34.7733 474.092L-18.8746 414.787L-49.4694 474.092L-50.2615 475.624L-55.2775 474.117L-22.1306 408.585L-90.5364 391.288L-107.814 386.89L-111.51 391.832C-121.689 405.373 -150.876 444.242 -172.23 473.178C-178.42 481.579 -183.964 489.116 -188.158 494.997C-189.302 496.603 -190.388 498.061 -191.327 499.395C-193.439 502.385 -194.964 504.634 -195.815 505.968C-196.076 506.232 -196.312 506.513 -196.519 506.808V506.808Z" fill="#193F3E"></path> <path fill-rule="evenodd" clip-rule="evenodd" d="M514.674 351.135L159.269 388.892L-39.8476 348.935L-58.6211 351.135L232.25 424.82L657.151 376L514.674 351.135Z" fill="url(#paint16_linear_94_989)"></path> </g> <defs> <linearGradient id="paint0_linear_94_989" x1="1523.94" y1="193.071" x2="2312.23" y2="193.071" gradientUnits="userSpaceOnUse"> <stop stop-color="#193F3E"></stop> <stop offset="1" stop-color="#356558"></stop> </linearGradient> <linearGradient id="paint1_linear_94_989" x1="2061.58" y1="47.2072" x2="1909.89" y2="401.192" gradientUnits="userSpaceOnUse"> <stop stop-color="#193F3E"></stop> <stop offset="1" stop-color="#58806D"></stop> </linearGradient> <linearGradient id="paint2_linear_94_989" x1="-556.47" y1="423.382" x2="1097.92" y2="423.382" gradientUnits="userSpaceOnUse"> <stop stop-color="#193F3E"></stop> <stop offset="1" stop-color="#193F3E"></stop> </linearGradient> <linearGradient id="paint3_linear_94_989" x1="1504.37" y1="307.74" x2="1847.5" y2="208.662" gradientUnits="userSpaceOnUse"> <stop stop-color="#193F3E"></stop> <stop offset="1" stop-color="#3C6459"></stop> </linearGradient> <linearGradient id="paint4_linear_94_989" x1="723.802" y1="377.309" x2="2248.73" y2="377.309" gradientUnits="userSpaceOnUse"> <stop stop-color="#193F3E"></stop> <stop offset="1" stop-color="#16403F"></stop> </linearGradient> <linearGradient id="paint5_linear_94_989" x1="1627.28" y1="287.036" x2="1698.42" y2="423.759" gradientUnits="userSpaceOnUse"> <stop stop-color="#476E76"></stop> <stop offset="1" stop-color="#1A413D" stop-opacity="0"></stop> </linearGradient> <linearGradient id="paint6_linear_94_989" x1="1700.1" y1="437.5" x2="2013.3" y2="375.141" gradientUnits="userSpaceOnUse"> <stop stop-color="#19403F"></stop> <stop offset="1" stop-color="#3C6169"></stop> </linearGradient> <linearGradient id="paint7_linear_94_989" x1="1641.35" y1="446.351" x2="2174.91" y2="427.35" gradientUnits="userSpaceOnUse"> <stop stop-color="#193F3E"></stop> <stop offset="1" stop-color="#193F3E"></stop> </linearGradient> <linearGradient id="paint8_linear_94_989" x1="1849.89" y1="434.268" x2="2011.71" y2="327.122" gradientUnits="userSpaceOnUse"> <stop stop-color="#193F3E"></stop> <stop offset="1" stop-color="#375E61"></stop> </linearGradient> <linearGradient id="paint9_linear_94_989" x1="370.587" y1="233.81" x2="-314.732" y2="233.81" gradientUnits="userSpaceOnUse"> <stop stop-color="#193F3E"></stop> <stop offset="1" stop-color="#356558"></stop> </linearGradient> <linearGradient id="paint10_linear_94_989" x1="-96.8201" y1="107" x2="35.051" y2="414.745" gradientUnits="userSpaceOnUse"> <stop stop-color="#193F3E"></stop> <stop offset="1" stop-color="#58806D"></stop> </linearGradient> <linearGradient id="paint11_linear_94_989" x1="387.603" y1="333.5" x2="89.289" y2="247.364" gradientUnits="userSpaceOnUse"> <stop stop-color="#193F3E"></stop> <stop offset="1" stop-color="#315C59"></stop> </linearGradient> <linearGradient id="paint12_linear_94_989" x1="1066.2" y1="393.981" x2="-259.527" y2="393.981" gradientUnits="userSpaceOnUse"> <stop stop-color="#193F3E"></stop> <stop offset="1" stop-color="#16403F"></stop> </linearGradient> <linearGradient id="paint13_linear_94_989" x1="235.701" y1="414.839" x2="-57.79" y2="404.387" gradientUnits="userSpaceOnUse"> <stop stop-color="#193F3E"></stop> <stop offset="1" stop-color="#3C6169"></stop> </linearGradient> <linearGradient id="paint14_linear_94_989" x1="268.51" y1="454.004" x2="-195.347" y2="437.485" gradientUnits="userSpaceOnUse"> <stop stop-color="#193F3E"></stop> <stop offset="1" stop-color="#193F3E"></stop> </linearGradient> <linearGradient id="paint15_linear_94_989" x1="87.2137" y1="443.5" x2="-53.4634" y2="350.35" gradientUnits="userSpaceOnUse"> <stop stop-color="#193F3E"></stop> <stop offset="1" stop-color="#375E61"></stop> </linearGradient> <linearGradient id="paint16_linear_94_989" x1="602.535" y1="349" x2="208.27" y2="453.833" gradientUnits="userSpaceOnUse"> <stop stop-color="#2A5A59"></stop> <stop offset="1" stop-color="#1A413D"></stop> </linearGradient> <clipPath id="clip0_94_989"> <rect width="2000" height="492" fill="white"></rect> </clipPath> </defs> </svg> 