<svg width="1440" height="500" viewBox="0 0 1440 500" fill="none" xmlns="http://www.w3.org/2000/svg">
<g clip-path="url(#clip0_452_5288)">
<path d="M1469 -289.528H-18.7754V801.484H1469V-289.528Z" fill="url(#paint0_linear_452_5288)"/>
<path d="M935.6 423.496C998.317 286.321 937.957 124.276 800.781 61.5591C663.606 -1.15785 501.561 59.2027 438.844 196.378C376.127 333.553 436.488 495.598 573.663 558.315C710.839 621.032 872.883 560.672 935.6 423.496Z" fill="url(#paint1_linear_452_5288)"/>
<path d="M477.369 290.418C477.055 294.176 248.271 398.14 280.024 448.62C311.777 499.099 528.912 474.611 731.894 402.524C934.875 330.438 1133.91 226.098 1108.86 171.172C1083.81 116.246 911.188 154.639 911.188 154.639L922.357 173.255C922.357 173.255 1008.15 156.955 1035.46 200.044C1062.76 243.133 914.207 321.42 723.126 378.913C532.044 436.407 357.684 462.711 345.659 424.382C333.634 386.053 476.68 322.296 476.68 322.296L477.369 290.418Z" fill="url(#paint2_linear_452_5288)"/>
<path style="mix-blend-mode:overlay" opacity="0.61" d="M1342.51 830.157C1523.78 830.157 1670.73 683.204 1670.73 501.929C1670.73 320.653 1523.78 173.7 1342.51 173.7C1161.23 173.7 1014.28 320.653 1014.28 501.929C1014.28 683.204 1161.23 830.157 1342.51 830.157Z" fill="url(#paint3_radial_452_5288)" fill-opacity="0.3"/>
<path style="mix-blend-mode:overlay" opacity="0.61" d="M761 871C1351.94 871 1831 391.945 1831 -199C1831 -789.945 1351.94 -1269 761 -1269C170.055 -1269 -309 -789.945 -309 -199C-309 391.945 170.055 871 761 871Z" fill="url(#paint4_radial_452_5288)"/>
<rect x="-2" y="-4" width="1523" height="676" fill="url(#paint5_linear_452_5288)"/>
<path d="M1713.75 17H1315.93L1237.11 95.8227H1004.14" stroke="url(#paint6_linear_452_5288)" stroke-width="3"/>
<path d="M1728.69 98.8571H1621.47L1555.61 33H1405.37L1307.62 130.757" stroke="url(#paint7_linear_452_5288)" stroke-width="3"/>
<path d="M1676.59 64H1437.86L1386 115.862" stroke="url(#paint8_linear_452_5288)" stroke-width="3"/>
<path d="M312.068 166.319H-33.6813L-123 77" stroke="url(#paint9_linear_452_5288)" stroke-width="3"/>
<path d="M375.5 140.422L425.922 90H240L207.578 121H-160" stroke="url(#paint10_linear_452_5288)" stroke-width="3"/>
<path d="M1592.36 315.942H1524.03L1440.48 399.498H1296.83L1225 327.672L1303.21 249.467" stroke="url(#paint11_linear_452_5288)" stroke-width="3"/>
<path d="M1196 323.5L1218.5 301H1012.62L984.221 329.401L955.82 357.802" stroke="url(#paint12_linear_452_5288)" stroke-width="3"/>
<path d="M-287 382.163H-108.362L3.80072 270H317.034L382.891 335.857" stroke="url(#paint13_linear_452_5288)" stroke-width="3"/>
<path d="M529.623 533.12H271.339L217.831 479.612L310.442 387H158.5L142.5 403" stroke="url(#paint14_linear_452_5288)" stroke-width="3"/>
<path d="M420.334 155.705L371.559 204.48H-88.0005" stroke="url(#paint15_linear_452_5288)" stroke-width="3"/>
<path d="M1263.49 337H1065.5L998 404.504H1127.04" stroke="url(#paint16_linear_452_5288)" stroke-width="3"/>
<path d="M1173 225.509L1177.76 220.752L1216.51 184L1345.55 184" stroke="url(#paint17_linear_452_5288)" stroke-width="3"/>
<path d="M36.9998 268H139.284L169.284 238H342.983" stroke="url(#paint18_linear_452_5288)" stroke-width="3"/>
<path d="M1111 249.764H1226.25L1268.01 208.004L1495.5 208" stroke="url(#paint19_linear_452_5288)" stroke-width="3"/>
<path d="M16.7402 456.664L60.5764 500.5H323.593" stroke="url(#paint20_linear_452_5288)" stroke-width="3"/>
<path d="M68.4375 416.918L129.355 345H352.652L447.939 451.287H698.402L749.441 502.326H989.202" stroke="url(#paint21_linear_452_5288)" stroke-width="3"/>
<path d="M1621.4 53H1484.54L1383.49 154.049H1151.35" stroke="url(#paint22_linear_452_5288)" stroke-width="3"/>
<circle cx="882.174" cy="10.6805" r="6.1741" fill="white"/>
<circle cx="998.174" cy="95.8225" r="6.1741" fill="#DCF7E2"/>
<circle cx="177.832" cy="4.1741" r="6.1741" fill="white"/>
<circle cx="418.482" cy="158.174" r="6.1741" transform="rotate(-180 418.482 158.174)" fill="#D3F3DA"/>
<circle cx="140.174" cy="405.174" r="6.1741" fill="white"/>
<circle cx="373.174" cy="142.174" r="6.1741" fill="#DFF8E4"/>
<circle cx="66.1741" cy="419.593" r="6.1741" fill="white"/>
<circle cx="15.2991" cy="454.4" r="6.1741" fill="white"/>
<circle cx="384.744" cy="337.504" r="6.1741" transform="rotate(-180 384.744 337.504)" fill="#BCF2CE"/>
<circle r="6.1741" transform="matrix(-1 0 0 1 346.174 238.174)" fill="#C6F7D2"/>
<circle r="6.1741" transform="matrix(-1 0 0 1 318.174 166.174)" fill="#DCF7E2"/>
<circle cx="954.174" cy="359.654" r="6.1741" fill="#BCF2CE"/>
<circle cx="974.755" cy="488.563" r="6.1741" fill="white"/>
<circle cx="1145.17" cy="153.844" r="6.1741" fill="#D0F1D8"/>
<circle cx="1306.17" cy="130.757" r="6.1741" fill="#DCF7E2"/>
<circle cx="1386.17" cy="116.174" r="6.1741" fill="#DCF7E2"/>
<circle cx="1305.88" cy="246.174" r="6.1741" fill="#C3F7CE"/>
<circle cx="1108.17" cy="250.174" r="6.1741" fill="#C4F7D0"/>
<circle cx="1172.17" cy="226.174" r="6.1741" fill="#C4F7D0"/>
<circle cx="1265.76" cy="333.023" r="6.1741" fill="white"/>
<circle cx="1070.95" cy="421.883" r="6.1741" fill="white"/>
<path d="M1177.5 125.5H1262L1324 63.5" stroke="url(#paint23_linear_452_5288)" stroke-width="3"/>
<path d="M116 142H256.5L287 115.5H362" stroke="url(#paint24_linear_452_5288)" stroke-width="3"/>
</g>
<defs>
<linearGradient id="paint0_linear_452_5288" x1="725.112" y1="174.348" x2="725.112" y2="-349.316" gradientUnits="userSpaceOnUse">
<stop stop-color="#B1FFEC"/>
<stop offset="0.19" stop-color="#B9F8AF"/>
<stop offset="0.5" stop-color="#ABF5C0"/>
<stop offset="0.88" stop-color="#A4F1C7"/>
<stop offset="1" stop-color="#A2EFE6"/>
</linearGradient>
<linearGradient id="paint1_linear_452_5288" x1="635.348" y1="140.91" x2="792.08" y2="455.732" gradientUnits="userSpaceOnUse">
<stop stop-color="#7CD299" stop-opacity="0.64"/>
<stop offset="1" stop-color="#D1FCE2" stop-opacity="0"/>
</linearGradient>
<linearGradient id="paint2_linear_452_5288" x1="1298.83" y1="146.071" x2="363.199" y2="464.203" gradientUnits="userSpaceOnUse">
<stop stop-color="#91DBC2"/>
<stop offset="1" stop-color="#ACE1B8" stop-opacity="0.04"/>
</linearGradient>
<radialGradient id="paint3_radial_452_5288" cx="0" cy="0" r="1" gradientUnits="userSpaceOnUse" gradientTransform="translate(1342.51 501.929) scale(328.229)">
<stop stop-color="#F9FF45"/>
<stop offset="1" stop-color="#F9FF45" stop-opacity="0"/>
</radialGradient>
<radialGradient id="paint4_radial_452_5288" cx="0" cy="0" r="1" gradientUnits="userSpaceOnUse" gradientTransform="translate(761 -199) scale(1070)">
<stop stop-color="#45D2FF"/>
<stop offset="1" stop-color="#45FF8F" stop-opacity="0"/>
</radialGradient>
<linearGradient id="paint5_linear_452_5288" x1="759.5" y1="-4" x2="759.5" y2="672" gradientUnits="userSpaceOnUse">
<stop stop-color="white"/>
<stop offset="1" stop-color="#CBF4A2" stop-opacity="0"/>
</linearGradient>
<linearGradient id="paint6_linear_452_5288" x1="1012.47" y1="36.2135" x2="1472.21" y2="14.1266" gradientUnits="userSpaceOnUse">
<stop stop-color="#DCF7E2"/>
<stop offset="1" stop-color="#E3FDE9" stop-opacity="0"/>
</linearGradient>
<linearGradient id="paint7_linear_452_5288" x1="1312.56" y1="56.8288" x2="1585.85" y2="50.5469" gradientUnits="userSpaceOnUse">
<stop stop-color="#DCF7E2"/>
<stop offset="1" stop-color="#E3FDE9" stop-opacity="0"/>
</linearGradient>
<linearGradient id="paint8_linear_452_5288" x1="1389.41" y1="76.6418" x2="1577.95" y2="71.0044" gradientUnits="userSpaceOnUse">
<stop stop-color="#DCF7E2"/>
<stop offset="1" stop-color="#E3FDE9" stop-opacity="0"/>
</linearGradient>
<linearGradient id="paint9_linear_452_5288" x1="264.5" y1="122" x2="-255.012" y2="251.1" gradientUnits="userSpaceOnUse">
<stop offset="0.238188" stop-color="#DCF7E2"/>
<stop offset="1" stop-color="#E3FDE9" stop-opacity="0"/>
</linearGradient>
<linearGradient id="paint10_linear_452_5288" x1="419.045" y1="128.131" x2="40.0216" y2="151.635" gradientUnits="userSpaceOnUse">
<stop stop-color="#DCF7E2"/>
<stop offset="1" stop-color="#E3FDE9" stop-opacity="0"/>
</linearGradient>
<linearGradient id="paint11_linear_452_5288" x1="1229.31" y1="286.038" x2="1467.82" y2="282.921" gradientUnits="userSpaceOnUse">
<stop stop-color="#C2F7CE"/>
<stop offset="1" stop-color="#E3FDE9" stop-opacity="0"/>
</linearGradient>
<linearGradient id="paint12_linear_452_5288" x1="962.226" y1="316.852" x2="1675.31" y2="193.204" gradientUnits="userSpaceOnUse">
<stop stop-color="#BBF1CD"/>
<stop offset="1" stop-color="#E3FDE9" stop-opacity="0"/>
</linearGradient>
<linearGradient id="paint13_linear_452_5288" x1="366.555" y1="350.86" x2="-1417.18" y2="750.317" gradientUnits="userSpaceOnUse">
<stop stop-color="#BBF1CD"/>
<stop offset="1" stop-color="#E3FDE9" stop-opacity="0"/>
</linearGradient>
<linearGradient id="paint14_linear_452_5288" x1="421.004" y1="400.503" x2="288.285" y2="546.111" gradientUnits="userSpaceOnUse">
<stop stop-color="#C8FCE0"/>
<stop offset="1" stop-color="white"/>
</linearGradient>
<linearGradient id="paint15_linear_452_5288" x1="430.444" y1="151.143" x2="-6.19048" y2="288.753" gradientUnits="userSpaceOnUse">
<stop offset="0.00364375" stop-color="#CFF0D6"/>
<stop offset="1" stop-color="#E3FDE9" stop-opacity="0"/>
</linearGradient>
<linearGradient id="paint16_linear_452_5288" x1="1004" y1="374" x2="1321.72" y2="314.319" gradientUnits="userSpaceOnUse">
<stop stop-color="#B4F5C3"/>
<stop offset="1" stop-color="#E3FDE9" stop-opacity="0"/>
</linearGradient>
<linearGradient id="paint17_linear_452_5288" x1="1174.95" y1="216.122" x2="1358.88" y2="224.482" gradientUnits="userSpaceOnUse">
<stop stop-color="#C2F7CE"/>
<stop offset="1" stop-color="#E3FDE9" stop-opacity="0"/>
</linearGradient>
<linearGradient id="paint18_linear_452_5288" x1="332" y1="231" x2="121.604" y2="270.507" gradientUnits="userSpaceOnUse">
<stop stop-color="#C2F7CE"/>
<stop offset="1" stop-color="#E3FDE9" stop-opacity="0"/>
</linearGradient>
<linearGradient id="paint19_linear_452_5288" x1="1115.51" y1="218.18" x2="1537.04" y2="177.395" gradientUnits="userSpaceOnUse">
<stop stop-color="#C2F7CE"/>
<stop offset="1" stop-color="#E3FDE9" stop-opacity="0"/>
</linearGradient>
<linearGradient id="paint20_linear_452_5288" x1="20.3417" y1="467.349" x2="341.338" y2="488.738" gradientUnits="userSpaceOnUse">
<stop stop-color="#C8FCE0"/>
<stop offset="1" stop-color="#E3FDE9" stop-opacity="0"/>
</linearGradient>
<linearGradient id="paint21_linear_452_5288" x1="90.8915" y1="388.907" x2="2547.3" y2="-150.148" gradientUnits="userSpaceOnUse">
<stop stop-color="#BBF1CD"/>
<stop offset="1" stop-color="#E3FDE9" stop-opacity="0"/>
</linearGradient>
<linearGradient id="paint22_linear_452_5288" x1="1142" y1="163.5" x2="1577.24" y2="102.275" gradientUnits="userSpaceOnUse">
<stop offset="0.00364375" stop-color="#CFF0D6"/>
<stop offset="1" stop-color="#E3FDE9" stop-opacity="0"/>
</linearGradient>
<linearGradient id="paint23_linear_452_5288" x1="1184.5" y1="136.5" x2="1294.56" y2="36.6018" gradientUnits="userSpaceOnUse">
<stop offset="0.0213316" stop-color="#E9FDEA"/>
<stop offset="0.547053" stop-color="#DCF7E2"/>
<stop offset="1" stop-color="#E3FDE9" stop-opacity="0"/>
</linearGradient>
<linearGradient id="paint24_linear_452_5288" x1="122.998" y1="152.997" x2="391.567" y2="22.3215" gradientUnits="userSpaceOnUse">
<stop offset="0.0213316" stop-color="#E9FDEA"/>
<stop offset="0.547053" stop-color="#DCF7E2"/>
<stop offset="1" stop-color="#E3FDE9" stop-opacity="0"/>
</linearGradient>
<clipPath id="clip0_452_5288">
<rect width="1440" height="500" fill="white"/>
</clipPath>
</defs>
</svg>
