<svg width="157" height="56" viewBox="0 0 157 56" fill="none" xmlns="http://www.w3.org/2000/svg">
<path d="M1.001 52H2.695V44.3H1.001V52ZM4.94931 52H6.61031V47.006L8.75531 50.262H8.79931L10.9663 46.973V52H12.6493V44.3H10.8233L8.79931 47.556L6.77531 44.3H4.94931V52ZM14.8291 52H16.5231V49.69H17.8101C19.5371 49.69 20.9231 48.766 20.9231 46.984C20.9231 45.389 19.8121 44.3 17.9751 44.3H14.8291V52ZM16.5231 48.183V45.829H17.8321C18.6791 45.829 19.2071 46.236 19.2071 46.995C19.2071 47.677 18.7121 48.183 17.8651 48.183H16.5231ZM21.0733 52H22.8003L23.5043 50.273H26.7603L27.4643 52H29.2353L25.9353 44.245H24.3733L21.0733 52ZM24.1093 48.777L25.1323 46.28L26.1553 48.777H24.1093ZM33.8676 52.132C35.3526 52.132 36.2326 51.67 37.0246 50.823L35.9466 49.668C35.3416 50.218 34.8026 50.57 33.9226 50.57C32.6026 50.57 31.6896 49.47 31.6896 48.15C31.6896 46.808 32.6246 45.73 33.9226 45.73C34.8026 45.73 35.3086 46.049 35.9026 46.588L36.9146 45.422C36.1996 44.718 35.3856 44.168 33.9336 44.168C31.5686 44.168 29.9186 45.961 29.9186 48.15C29.9186 50.383 31.6016 52.132 33.8676 52.132ZM40.5037 52H42.1977V45.862H44.5407V44.3H38.1607V45.862H40.5037V52ZM52.2544 52.055H53.7504L56.8634 44.3H55.0374L53.0244 49.723L51.0114 44.3H49.1414L52.2544 52.055ZM58.3814 52H64.2444V50.493H60.0644V48.876H63.6944V47.369H60.0644V45.807H64.1894V44.3H58.3814V52ZM66.0805 52H67.7525V47.105L71.4815 52H72.9225V44.3H71.2505V49.041L67.6425 44.3H66.0805V52ZM76.894 52H78.588V45.862H80.931V44.3H74.551V45.862H76.894V52ZM85.7758 52.121C87.8438 52.121 89.1528 50.977 89.1528 48.645V44.3H87.4588V48.711C87.4588 49.932 86.8318 50.559 85.7978 50.559C84.7638 50.559 84.1368 49.91 84.1368 48.656V44.3H82.4428V48.7C82.4428 50.966 83.7078 52.121 85.7758 52.121ZM91.2082 52H92.9022V49.536H94.2112L95.8832 52H97.8632L95.9822 49.25C96.9612 48.887 97.6322 48.106 97.6322 46.863C97.6322 46.115 97.4012 45.51 96.9722 45.081C96.4662 44.575 95.7072 44.3 94.7282 44.3H91.2082V52ZM92.9022 48.04V45.829H94.5852C95.4102 45.829 95.9162 46.203 95.9162 46.929C95.9162 47.6 95.4432 48.04 94.6182 48.04H92.9022ZM99.4874 52H105.35V50.493H101.17V48.876H104.8V47.369H101.17V45.807H105.295V44.3H99.4874V52ZM113.553 52.11C115.214 52.11 116.38 51.252 116.38 49.723C116.38 48.359 115.5 47.798 113.938 47.391C112.607 47.05 112.277 46.885 112.277 46.379C112.277 45.983 112.618 45.686 113.267 45.686C113.916 45.686 114.587 45.972 115.269 46.445L116.149 45.169C115.368 44.542 114.411 44.19 113.289 44.19C111.716 44.19 110.594 45.114 110.594 46.511C110.594 48.062 111.595 48.491 113.146 48.887C114.433 49.217 114.697 49.437 114.697 49.866C114.697 50.339 114.279 50.614 113.586 50.614C112.706 50.614 111.98 50.251 111.287 49.679L110.286 50.878C111.21 51.703 112.387 52.11 113.553 52.11ZM119.812 52H121.506V45.862H123.849V44.3H117.469V45.862H119.812V52ZM128.694 52.121C130.762 52.121 132.071 50.977 132.071 48.645V44.3H130.377V48.711C130.377 49.932 129.75 50.559 128.716 50.559C127.682 50.559 127.055 49.91 127.055 48.656V44.3H125.361V48.7C125.361 50.966 126.626 52.121 128.694 52.121ZM134.127 52H137.13C139.55 52 141.222 50.317 141.222 48.15C141.222 45.961 139.55 44.3 137.13 44.3H134.127V52ZM135.821 50.471V45.829H137.13C138.516 45.829 139.451 46.786 139.451 48.15C139.451 49.536 138.516 50.471 137.13 50.471H135.821ZM143.138 52H144.832V44.3H143.138V52ZM150.827 52.132C153.203 52.132 154.93 50.339 154.93 48.15C154.93 45.939 153.225 44.168 150.849 44.168C148.473 44.168 146.746 45.961 146.746 48.15C146.746 50.361 148.451 52.132 150.827 52.132ZM150.849 50.57C149.485 50.57 148.517 49.47 148.517 48.15C148.517 46.808 149.463 45.73 150.827 45.73C152.191 45.73 153.159 46.83 153.159 48.15C153.159 49.492 152.213 50.57 150.849 50.57Z" fill="url(#paint0_linear_134_25)"/>
<path d="M1 8.53882H13.4418C16.8678 8.53882 19.5725 8.80706 21.556 9.34353C23.5394 9.8502 24.997 10.7443 25.9286 12.0259C26.8602 13.3075 27.3261 15.0808 27.3261 17.3459V29.1482C27.3261 31.3537 26.8903 33.0675 26.0188 34.2894C25.1472 35.4816 23.7198 36.331 21.7363 36.8376C19.7528 37.3145 17.003 37.5529 13.4868 37.5529H1V8.53882ZM13.1713 32.5906C15.0947 32.5906 16.5372 32.5161 17.4989 32.3671C18.4906 32.1882 19.1968 31.8604 19.6176 31.3835C20.0684 30.9067 20.2938 30.1616 20.2938 29.1482V17.2118C20.2938 15.8408 19.7378 14.8871 18.6258 14.3506C17.5439 13.7843 15.8009 13.5012 13.3967 13.5012H8.0323V32.5906H13.1713Z" fill="#E52329"/>
<path d="M47.1139 38C45.4911 38 43.9885 37.8957 42.606 37.6871C41.2537 37.4784 39.8412 37.1208 38.3686 36.6141C36.7758 36.0776 35.5287 35.2133 34.6271 34.0212C33.7255 32.7992 33.2747 31.3239 33.2747 29.5953V16.8988C33.2747 15.4682 33.5903 14.1867 34.2214 13.0541C34.8825 11.9216 35.724 11.0275 36.7458 10.3718C37.6474 9.80549 38.7593 9.32863 40.0816 8.94118C41.4039 8.55372 42.6361 8.31529 43.7781 8.22588C44.8299 8.13647 45.9419 8.09176 47.1139 8.09176C48.4963 8.09176 49.6984 8.15137 50.7202 8.27059C51.742 8.36 52.884 8.56863 54.1462 8.89647C55.5888 9.31372 56.7758 9.82039 57.7075 10.4165C58.6391 11.0125 59.4205 11.8471 60.0516 12.92C60.7127 14.0227 61.0433 15.349 61.0433 16.8988V29.5953C61.0433 31.2047 60.6075 32.5906 59.736 33.7529C58.8945 34.9153 57.7225 35.7945 56.2199 36.3906C53.5151 37.4635 50.4798 38 47.1139 38ZM47.2041 33.0376C48.1958 33.0376 49.0223 33.0078 49.6834 32.9482C50.3746 32.8588 51.0809 32.7098 51.8021 32.5012C52.5234 32.2925 53.0643 31.9498 53.425 31.4729C53.8157 30.9663 54.011 30.3404 54.011 29.5953V16.8541C54.011 15.4831 53.455 14.5145 52.3431 13.9482C51.2311 13.3522 49.5031 13.0541 47.159 13.0541C44.8149 13.0541 43.0869 13.3373 41.9749 13.9035C40.863 14.4698 40.307 15.4533 40.307 16.8541V29.5953C40.307 30.3404 40.5024 30.9663 40.893 31.4729C41.2837 31.9498 41.8547 32.2925 42.606 32.5012C43.3273 32.7098 44.0185 32.8588 44.6797 32.9482C45.3709 33.0078 46.2123 33.0376 47.2041 33.0376ZM48.9622 0H56.1297L50.4948 5.67765H44.9051L48.9622 0Z" fill="#E52329"/>
<path d="M67.604 8.53882H79.4598C82.2547 8.53882 84.4034 8.74745 85.9061 9.1647C87.4387 9.55216 88.5206 10.1929 89.1517 11.0871C89.7828 11.9514 90.0984 13.1733 90.0984 14.7529V18.3294C90.0984 19.1341 89.7678 19.8941 89.1067 20.6094C88.4756 21.3247 87.7243 21.8165 86.8527 22.0847V22.3082C87.9947 22.4275 89.0315 22.9192 89.9632 23.7835C90.9249 24.618 91.4057 25.5569 91.4057 26.6V31.0706C91.4057 33.4251 90.459 35.0941 88.5657 36.0776C86.6724 37.0612 83.7423 37.5529 79.7753 37.5529H67.604V8.53882ZM79.4598 20.3412C80.5717 20.3412 81.3982 20.2518 81.9391 20.0729C82.4801 19.8941 82.8407 19.611 83.021 19.2235C83.2314 18.8063 83.3366 18.2102 83.3366 17.4353V16.0047C83.3366 15.3192 83.2464 14.8126 83.0661 14.4847C82.8858 14.1271 82.5101 13.8737 81.9391 13.7247C81.3982 13.5757 80.5266 13.5012 79.3245 13.5012H74.6363V20.3412H79.4598ZM79.6401 32.5906C81.3531 32.5906 82.5702 32.3969 83.2915 32.0094C84.0127 31.622 84.3734 30.9961 84.3734 30.1318V27.8071C84.3734 26.7341 84.0879 25.9741 83.5169 25.5271C82.9759 25.08 81.9992 24.8565 80.5867 24.8565H74.6363V32.5906H79.6401Z" fill="#E52329"/>
<path d="M97.1201 8.53882H110.283C114.19 8.53882 117.015 9.01569 118.758 9.96941C120.501 10.8933 121.373 12.458 121.373 14.6635V19.76C121.373 21.4588 120.757 22.8 119.524 23.7835C118.322 24.7373 116.714 25.3482 114.701 25.6165L123.176 37.5529H115.062L107.398 26.1529H104.152V37.5529H97.1201V8.53882ZM110.193 21.5482C111.846 21.5482 112.973 21.3396 113.574 20.9224C114.175 20.4753 114.476 19.6259 114.476 18.3741V16.3176C114.476 15.2447 114.145 14.5145 113.484 14.1271C112.853 13.7098 111.756 13.5012 110.193 13.5012H104.152V21.5482H110.193Z" fill="#E52329"/>
<path d="M135.887 8.53882H144.452L155 37.5529H147.878L145.263 29.9082H134.579L132.01 37.5529H125.068L135.887 8.53882ZM143.73 25.2588L140.034 14.3506H139.854L136.157 25.2588H143.73Z" fill="#E52329"/>
<defs>
<linearGradient id="paint0_linear_134_25" x1="2" y1="64" x2="151" y2="64" gradientUnits="userSpaceOnUse">
<stop stop-color="#1C4241"/>
<stop offset="1" stop-color="#4D7665"/>
</linearGradient>
</defs>
</svg>
